<svg xmlns="http://www.w3.org/2000/svg" width="1454.465" height="528.793"><defs><style>.cls-2{fill:#fff}</style></defs><g id="Group_288" data-name="Group 288" transform="translate(35.717 -116.949)"><g id="Group_286" data-name="Group 286" transform="translate(-35.717 116.949)"><path id="Path_234" data-name="Path 234" d="M1418.748 352.054l-15.419 3a4.268 4.268 0 01-5.009-3.377l-2.293-11.789a4.26 4.26 0 013.38-5.011l15.982-3.109a4.24 4.24 0 013.359.771V147.878a4.208 4.208 0 01-.446.135l-15.985 3.106a4.272 4.272 0 01-5.011-3.38l-2.3-11.807a4.273 4.273 0 013.38-5.011l15.982-3.109a4.271 4.271 0 014.375 1.829v-12.692L-35.717 399.752v10.5a4.26 4.26 0 013.041 3.281l2.3 11.81a4.275 4.275 0 01-3.38 5.011l-1.957.38v183.3a4.256 4.256 0 014.057 3.45l2.291 11.789a4.273 4.273 0 01-3.377 5.011l-2.971.576v10.885l1454.465-282.8zM-16.439 406.019l15.985-3.109a4.273 4.273 0 015.011 3.38l2.3 11.81a4.271 4.271 0 01-3.38 5.009l-15.985 3.109a4.272 4.272 0 01-5.011-3.38l-2.3-11.81a4.271 4.271 0 013.38-5.009zM4.484 627.042l-15.984 3.106a4.269 4.269 0 01-5.009-3.377l-2.291-11.789a4.256 4.256 0 013.38-5.011l15.98-3.109a4.258 4.258 0 015.011 3.38l2.293 11.789a4.273 4.273 0 01-3.38 5.011zM20.795 398.78l15.982-3.109a4.271 4.271 0 015.011 3.38l2.3 11.81a4.27 4.27 0 01-3.377 5.009l-15.985 3.109a4.271 4.271 0 01-5.011-3.38l-2.3-11.807a4.271 4.271 0 013.38-5.012zM41.717 619.8l-15.985 3.106a4.272 4.272 0 01-5.011-3.38l-2.291-11.787a4.258 4.258 0 013.38-5.011l15.982-3.109A4.26 4.26 0 0142.8 603l2.3 11.792a4.275 4.275 0 01-3.383 5.008zm16.308-228.259l15.985-3.109a4.272 4.272 0 015.011 3.38l2.3 11.81a4.269 4.269 0 01-3.38 5.009l-15.985 3.109a4.269 4.269 0 01-5.009-3.38l-2.3-11.81a4.271 4.271 0 013.378-5.009zm20.923 221.023l-15.982 3.106a4.27 4.27 0 01-5.011-3.38l-2.293-11.79a4.26 4.26 0 013.38-5.011l15.985-3.109a4.259 4.259 0 015.011 3.38l2.291 11.789a4.271 4.271 0 01-3.381 5.015zM95.258 384.3l15.985-3.106a4.273 4.273 0 015.011 3.38l2.3 11.807a4.273 4.273 0 01-3.38 5.011L99.185 404.5a4.272 4.272 0 01-5.011-3.38l-2.3-11.81a4.273 4.273 0 013.384-5.01zm20.923 221.025l-15.981 3.106a4.271 4.271 0 01-5.011-3.38l-2.293-11.789a4.257 4.257 0 013.38-5.009l15.985-3.109a4.255 4.255 0 015.009 3.38l2.293 11.789a4.273 4.273 0 01-3.382 5.011zm16.31-228.264l15.982-3.106a4.271 4.271 0 015.011 3.38l2.3 11.807a4.27 4.27 0 01-3.38 5.011l-15.982 3.109a4.272 4.272 0 01-5.011-3.38l-2.3-11.81a4.273 4.273 0 013.381-5.012zm20.923 221.025l-15.985 3.106a4.273 4.273 0 01-5.011-3.38l-2.291-11.789a4.259 4.259 0 013.377-5.011l15.986-3.112a4.258 4.258 0 015.011 3.38l2.293 11.789a4.275 4.275 0 01-3.38 5.016zm16.308-228.264l15.985-3.106a4.272 4.272 0 015.011 3.38l2.3 11.807a4.272 4.272 0 01-3.38 5.011l-15.982 3.109a4.273 4.273 0 01-5.011-3.38l-2.3-11.81a4.275 4.275 0 013.377-5.012zm20.925 221.022l-15.985 3.109a4.272 4.272 0 01-5.011-3.38l-2.293-11.789a4.263 4.263 0 013.38-5.011l15.985-3.106a4.259 4.259 0 015.011 3.38l2.291 11.787a4.269 4.269 0 01-3.377 5.009zm16.308-228.262l15.985-3.106a4.273 4.273 0 015.011 3.377l2.3 11.81a4.274 4.274 0 01-3.38 5.011l-15.985 3.109a4.277 4.277 0 01-5.011-3.38l-2.3-11.81a4.275 4.275 0 013.38-5.011zM227.878 583.6l-15.985 3.109a4.269 4.269 0 01-5.009-3.38l-2.293-11.789a4.261 4.261 0 013.38-5.011l15.985-3.106a4.259 4.259 0 015.011 3.38l2.291 11.786a4.271 4.271 0 01-3.38 5.011zm16.31-228.262l15.982-3.109a4.274 4.274 0 015.011 3.38l2.3 11.81a4.27 4.27 0 01-3.377 5.011l-15.985 3.109a4.274 4.274 0 01-5.011-3.38l-2.3-11.81a4.273 4.273 0 013.38-5.007zm20.923 221.022l-15.985 3.109a4.273 4.273 0 01-5.011-3.38l-2.29-11.789a4.259 4.259 0 013.38-5.011l15.982-3.106a4.257 4.257 0 015.011 3.377l2.293 11.789a4.273 4.273 0 01-3.38 5.016zm16.308-228.26l15.985-3.109a4.276 4.276 0 015.011 3.38l2.3 11.81a4.273 4.273 0 01-3.38 5.011l-15.989 3.108a4.273 4.273 0 01-5.009-3.38l-2.3-11.81a4.274 4.274 0 013.382-5.01zm20.925 221.022l-15.985 3.109a4.276 4.276 0 01-5.011-3.38l-2.293-11.789a4.263 4.263 0 013.38-5.011l15.985-3.106a4.259 4.259 0 015.011 3.377l2.293 11.789a4.273 4.273 0 01-3.38 5.015zm16.308-228.262l15.985-3.109a4.276 4.276 0 015.011 3.38l2.3 11.81a4.275 4.275 0 01-3.38 5.011l-15.985 3.109a4.276 4.276 0 01-5.011-3.38l-2.3-11.81a4.274 4.274 0 013.38-5.007zm20.923 221.022L323.593 565a4.275 4.275 0 01-5.011-3.38l-2.293-11.789a4.259 4.259 0 013.38-5.011l15.985-3.106a4.259 4.259 0 015.011 3.377l2.291 11.789a4.272 4.272 0 01-3.381 5.006zm16.31-228.262l15.982-3.109a4.274 4.274 0 015.011 3.38l2.3 11.81a4.275 4.275 0 01-3.38 5.011l-15.985 3.106a4.272 4.272 0 01-5.011-3.38l-2.3-11.807a4.272 4.272 0 013.383-5.006zm20.923 221.022l-15.985 3.109a4.277 4.277 0 01-5.011-3.38l-2.291-11.789a4.259 4.259 0 013.38-5.011l15.982-3.109a4.26 4.26 0 015.011 3.38l2.293 11.789a4.274 4.274 0 01-3.379 5.016zm16.308-228.262l15.985-3.109a4.274 4.274 0 015.011 3.38l2.3 11.81a4.273 4.273 0 01-3.38 5.011l-15.982 3.106a4.271 4.271 0 01-5.011-3.38l-2.3-11.807a4.27 4.27 0 013.377-5.005zm20.925 221.022l-15.985 3.109a4.275 4.275 0 01-5.011-3.38l-2.293-11.789a4.261 4.261 0 013.38-5.011l15.985-3.109a4.263 4.263 0 015.011 3.38l2.293 11.789a4.274 4.274 0 01-3.38 5.017zm16.308-228.262l15.985-3.109a4.275 4.275 0 015.011 3.38l2.3 11.81a4.275 4.275 0 01-3.38 5.011l-15.985 3.106a4.273 4.273 0 01-5.011-3.38l-2.3-11.807a4.274 4.274 0 013.38-5.005zm20.923 221.022l-15.982 3.106a4.271 4.271 0 01-5.011-3.377l-2.293-11.789a4.26 4.26 0 013.38-5.011l15.985-3.109a4.263 4.263 0 015.011 3.38l2.291 11.789a4.273 4.273 0 01-3.381 5.018zm16.31-228.262l15.982-3.109a4.271 4.271 0 015.011 3.38l2.3 11.81a4.275 4.275 0 01-3.38 5.011l-15.985 3.106a4.271 4.271 0 01-5.011-3.38l-2.3-11.807a4.271 4.271 0 013.383-5.004zm20.923 221.03l-15.985 3.106a4.273 4.273 0 01-5.011-3.377l-2.291-11.789a4.258 4.258 0 013.38-5.011l15.982-3.109a4.26 4.26 0 015.011 3.38l2.293 11.789a4.275 4.275 0 01-3.379 5.011zm16.308-228.262l15.985-3.109a4.271 4.271 0 015.011 3.38l2.3 11.807a4.271 4.271 0 01-3.38 5.011l-15.982 3.109a4.27 4.27 0 01-5.011-3.38l-2.3-11.81a4.268 4.268 0 013.377-5.008zm20.925 221.022l-15.984 3.11a4.272 4.272 0 01-5.011-3.377l-2.293-11.789a4.26 4.26 0 013.38-5.011l15.985-3.109a4.259 4.259 0 015.011 3.38l2.293 11.789a4.275 4.275 0 01-3.381 5.007zm16.308-228.262l15.985-3.109a4.272 4.272 0 015.011 3.38l2.3 11.81a4.271 4.271 0 01-3.38 5.009l-15.985 3.109a4.273 4.273 0 01-5.011-3.38l-2.3-11.81a4.271 4.271 0 013.38-5.008zm20.923 221.023l-15.982 3.106a4.271 4.271 0 01-5.011-3.38l-2.293-11.787a4.26 4.26 0 013.38-5.011l15.985-3.109a4.261 4.261 0 015.011 3.38l2.291 11.789a4.273 4.273 0 01-3.381 5.012zm16.31-228.264l15.982-3.106a4.271 4.271 0 015.011 3.38l2.3 11.807a4.269 4.269 0 01-3.377 5.011l-15.985 3.109a4.272 4.272 0 01-5.011-3.38l-2.3-11.81a4.273 4.273 0 013.38-5.011zM600.2 511.212l-15.985 3.106a4.273 4.273 0 01-5.011-3.38l-2.291-11.787a4.256 4.256 0 013.38-5.011l15.982-3.109a4.256 4.256 0 015.011 3.38l2.293 11.789a4.273 4.273 0 01-3.379 5.012zm16.31-228.264l15.985-3.106a4.271 4.271 0 015.011 3.38l2.3 11.807a4.272 4.272 0 01-3.38 5.011l-15.982 3.109a4.272 4.272 0 01-5.011-3.38l-2.3-11.81a4.272 4.272 0 013.377-5.011zm20.925 221.025l-15.985 3.106a4.272 4.272 0 01-5.011-3.38l-2.293-11.789a4.259 4.259 0 013.38-5.009l15.985-3.109a4.259 4.259 0 015.011 3.38l2.293 11.789a4.275 4.275 0 01-3.38 5.012zm16.308-228.264l15.985-3.106a4.272 4.272 0 015.011 3.377l2.3 11.81a4.274 4.274 0 01-3.38 5.011l-15.989 3.109a4.277 4.277 0 01-5.011-3.38l-2.3-11.81a4.275 4.275 0 013.384-5.011zm20.925 221.022l-15.985 3.109a4.271 4.271 0 01-5.011-3.38l-2.293-11.789a4.263 4.263 0 013.38-5.011l15.985-3.106a4.259 4.259 0 015.011 3.38l2.291 11.787a4.269 4.269 0 01-3.378 5.01zm16.308-228.262l15.985-3.106a4.269 4.269 0 015.009 3.38l2.3 11.807a4.274 4.274 0 01-3.38 5.011l-15.99 3.109a4.276 4.276 0 01-5.011-3.38l-2.3-11.81a4.273 4.273 0 013.387-5.011zM711.9 489.492l-15.986 3.108a4.269 4.269 0 01-5.009-3.38l-2.293-11.789a4.259 4.259 0 013.38-5.011l15.985-3.106a4.255 4.255 0 015.009 3.38l2.293 11.786a4.273 4.273 0 01-3.379 5.012zm16.307-228.262l15.985-3.109a4.274 4.274 0 015.011 3.38l2.3 11.81a4.27 4.27 0 01-3.38 5.011l-15.982 3.109a4.274 4.274 0 01-5.011-3.38l-2.3-11.81a4.274 4.274 0 013.377-5.011zm20.925 221.022l-15.985 3.109a4.272 4.272 0 01-5.011-3.38l-2.291-11.789a4.259 4.259 0 013.377-5.011l15.985-3.106a4.258 4.258 0 015.011 3.377l2.293 11.789a4.272 4.272 0 01-3.379 5.012zm16.308-228.261l15.985-3.109a4.276 4.276 0 015.011 3.38l2.3 11.81a4.274 4.274 0 01-3.38 5.011l-15.985 3.109a4.273 4.273 0 01-5.009-3.38L762.06 259a4.275 4.275 0 013.38-5.009zm20.926 221.022l-15.985 3.109a4.272 4.272 0 01-5.011-3.38l-2.293-11.789a4.261 4.261 0 013.38-5.011l15.985-3.106a4.259 4.259 0 015.011 3.377l2.29 11.787a4.271 4.271 0 01-3.378 5.013zm16.308-228.262l15.985-3.109a4.277 4.277 0 015.011 3.38l2.3 11.81a4.275 4.275 0 01-3.38 5.011l-15.99 3.11a4.276 4.276 0 01-5.011-3.38l-2.3-11.81a4.272 4.272 0 013.384-5.011zM823.6 467.774l-15.982 3.109a4.274 4.274 0 01-5.011-3.38l-2.293-11.789a4.259 4.259 0 013.38-5.011l15.982-3.106a4.257 4.257 0 015.011 3.377l2.293 11.789a4.274 4.274 0 01-3.38 5.011zm16.31-228.262l15.982-3.109a4.275 4.275 0 015.011 3.38l2.3 11.81a4.271 4.271 0 01-3.38 5.011l-15.982 3.106a4.271 4.271 0 01-5.011-3.38l-2.3-11.807a4.27 4.27 0 013.376-5.01zm20.923 221.022l-15.985 3.109a4.276 4.276 0 01-5.011-3.38l-2.291-11.789a4.259 4.259 0 013.38-5.011l15.982-3.106a4.258 4.258 0 015.011 3.377l2.293 11.789a4.274 4.274 0 01-3.383 5.012zm16.308-228.262l15.985-3.109a4.272 4.272 0 015.011 3.38l2.3 11.81a4.273 4.273 0 01-3.38 5.011l-15.985 3.106a4.269 4.269 0 01-5.009-3.38l-2.3-11.807a4.274 4.274 0 013.374-5.01zM898.06 453.3l-15.982 3.1a4.275 4.275 0 01-5.011-3.38l-2.293-11.789a4.262 4.262 0 013.38-5.011l15.985-3.109a4.263 4.263 0 015.011 3.38l2.291 11.789a4.27 4.27 0 01-3.381 5.02zm16.31-228.262l15.985-3.109a4.275 4.275 0 015.011 3.38l2.3 11.81a4.275 4.275 0 01-3.38 5.011l-15.986 3.102a4.272 4.272 0 01-5.011-3.38l-2.3-11.807a4.272 4.272 0 013.381-5.011zm20.923 221.022l-15.982 3.106a4.271 4.271 0 01-5.011-3.377L912.006 434a4.258 4.258 0 013.38-5.011l15.984-3.109a4.259 4.259 0 015.009 3.38l2.293 11.789a4.273 4.273 0 01-3.379 5.008zM951.6 217.795l15.982-3.109a4.271 4.271 0 015.011 3.38l2.3 11.81a4.271 4.271 0 01-3.38 5.011l-15.982 3.106a4.27 4.27 0 01-5.011-3.38l-2.3-11.807a4.271 4.271 0 013.38-5.011zm20.923 221.022l-15.985 3.106a4.272 4.272 0 01-5.011-3.377l-2.29-11.789a4.258 4.258 0 013.38-5.011l15.982-3.109a4.262 4.262 0 015.011 3.38l2.293 11.789a4.275 4.275 0 01-3.377 5.011zm16.308-228.262l15.984-3.109a4.271 4.271 0 015.011 3.38l2.3 11.81a4.273 4.273 0 01-3.38 5.011l-15.985 3.106a4.269 4.269 0 01-5.009-3.38l-2.3-11.81a4.271 4.271 0 013.382-5.007zm20.925 221.022l-15.984 3.106a4.271 4.271 0 01-5.011-3.377l-2.293-11.789a4.262 4.262 0 013.38-5.011l15.984-3.109a4.261 4.261 0 015.011 3.38l2.291 11.789a4.271 4.271 0 01-3.375 5.012zm16.308-228.262l15.984-3.109a4.268 4.268 0 015.009 3.38l2.3 11.807a4.271 4.271 0 01-3.38 5.011l-15.984 3.109a4.273 4.273 0 01-5.011-3.38l-2.3-11.81a4.271 4.271 0 013.385-5.006zm20.923 221.022l-15.982 3.106a4.271 4.271 0 01-5.011-3.377l-2.293-11.789a4.258 4.258 0 013.38-5.011l15.984-3.109a4.255 4.255 0 015.009 3.38l2.293 11.789a4.273 4.273 0 01-3.377 5.013zm16.31-228.262l15.982-3.109a4.271 4.271 0 015.011 3.38l2.3 11.807a4.269 4.269 0 01-3.377 5.011l-15.985 3.109a4.272 4.272 0 01-5.011-3.38l-2.3-11.81a4.271 4.271 0 013.383-5.006zm20.926 221.025l-15.985 3.106a4.272 4.272 0 01-5.011-3.38l-2.291-11.786a4.258 4.258 0 013.38-5.011l15.982-3.109a4.259 4.259 0 015.011 3.38l2.293 11.789a4.273 4.273 0 01-3.379 5.011zm16.308-228.264l15.985-3.106a4.271 4.271 0 015.011 3.38l2.3 11.807a4.271 4.271 0 01-3.38 5.011l-15.982 3.109a4.274 4.274 0 01-5.011-3.38l-2.3-11.81a4.272 4.272 0 013.377-5.011zm20.925 221.022l-15.985 3.109a4.272 4.272 0 01-5.011-3.38l-2.293-11.786a4.264 4.264 0 013.38-5.014l15.984-3.106a4.258 4.258 0 015.011 3.38l2.293 11.789a4.271 4.271 0 01-3.379 5.008zm16.308-228.258l15.984-3.106a4.271 4.271 0 015.011 3.377l2.3 11.81a4.272 4.272 0 01-3.38 5.011l-15.985 3.109a4.276 4.276 0 01-5.011-3.38l-2.3-11.81a4.275 4.275 0 013.381-5.011zm20.923 221.022l-15.982 3.109a4.272 4.272 0 01-5.011-3.38l-2.293-11.789a4.261 4.261 0 013.38-5.011l15.984-3.106a4.259 4.259 0 015.011 3.38l2.291 11.786a4.271 4.271 0 01-3.38 5.008zM1175 174.357l15.982-3.106a4.271 4.271 0 015.011 3.377l2.3 11.81a4.27 4.27 0 01-3.377 5.011l-15.984 3.109a4.276 4.276 0 01-5.011-3.38l-2.3-11.81a4.275 4.275 0 013.379-5.011zm20.92 221.023l-15.985 3.109a4.273 4.273 0 01-5.011-3.38l-2.291-11.789a4.259 4.259 0 013.38-5.011L1192 375.2a4.258 4.258 0 015.011 3.38l2.293 11.786a4.271 4.271 0 01-3.384 5.014zm16.308-228.262l15.985-3.106a4.271 4.271 0 015.011 3.377l2.3 11.81a4.272 4.272 0 01-3.38 5.011l-15.982 3.109a4.276 4.276 0 01-5.011-3.38l-2.3-11.81a4.27 4.27 0 013.376-5.011zm20.926 221.022l-15.985 3.109a4.272 4.272 0 01-5.011-3.38l-2.293-11.789a4.263 4.263 0 013.38-5.011l15.985-3.106a4.257 4.257 0 015.011 3.38l2.293 11.786a4.273 4.273 0 01-3.381 5.011zm16.308-228.262l15.985-3.109a4.276 4.276 0 015.011 3.38l2.3 11.81a4.272 4.272 0 01-3.38 5.011l-15.984 3.109a4.276 4.276 0 01-5.011-3.38l-2.3-11.81a4.274 4.274 0 013.378-5.01zm20.921 221.022l-15.983 3.11a4.274 4.274 0 01-5.011-3.38l-2.293-11.789a4.261 4.261 0 013.38-5.011l15.984-3.106a4.259 4.259 0 015.011 3.377l2.29 11.789a4.272 4.272 0 01-3.378 5.01zm16.31-228.262l15.982-3.109a4.275 4.275 0 015.011 3.38l2.3 11.81a4.275 4.275 0 01-3.38 5.011l-15.984 3.106a4.272 4.272 0 01-5.011-3.377l-2.3-11.81a4.274 4.274 0 013.383-5.01zm20.923 221.022l-15.985 3.109a4.277 4.277 0 01-5.011-3.38l-2.29-11.789a4.261 4.261 0 013.38-5.011l15.982-3.106a4.258 4.258 0 015.011 3.377l2.297 11.791a4.272 4.272 0 01-3.383 5.011zm16.31-228.262l15.982-3.109a4.274 4.274 0 015.011 3.38l2.3 11.81a4.273 4.273 0 01-3.38 5.011l-15.982 3.106a4.272 4.272 0 01-5.011-3.377l-2.3-11.81a4.27 4.27 0 013.381-5.009zm20.923 221.022l-15.984 3.109a4.276 4.276 0 01-5.011-3.38l-2.293-11.789a4.263 4.263 0 013.38-5.011l15.985-3.109a4.262 4.262 0 015.011 3.38l2.293 11.789a4.272 4.272 0 01-3.38 5.014zm16.308-228.262l15.985-3.109a4.272 4.272 0 015.011 3.38l2.3 11.81a4.273 4.273 0 01-3.38 5.011l-15.985 3.106a4.273 4.273 0 01-5.011-3.38l-2.3-11.807a4.273 4.273 0 013.381-5.008zm20.923 221.022l-15.982 3.109a4.276 4.276 0 01-5.011-3.38l-2.293-11.789a4.261 4.261 0 013.38-5.011l15.985-3.109a4.261 4.261 0 015.011 3.38l2.291 11.789a4.272 4.272 0 01-3.381 5.014z" transform="translate(35.717 -116.949)" fill="#0a0909"/></g><g id="Group_287" data-name="Group 287" transform="translate(-35.717 157.713)"><path id="Path_235" data-name="Path 235" class="cls-2" d="M-.107 387.483L-26.7 250.7a11.8 11.8 0 00-9.014-9.259v164.995l26.273-5.108a11.808 11.808 0 009.334-13.845z" transform="translate(35.717 42.212)"/><rect id="Rectangle_86" data-name="Rectangle 86" class="cls-2" width="229.085" height="162.958" rx="4.531" transform="rotate(-11.003 1457.377 38.754)"/><rect id="Rectangle_87" data-name="Rectangle 87" class="cls-2" width="229.085" height="162.958" rx="4.531" transform="rotate(-11.003 1336.396 -1217.284)"/><path id="Rectangle_88" data-name="Rectangle 88" class="cls-2" d="M4.532 0h220.023a4.531 4.531 0 014.531 4.531v153.9a4.531 4.531 0 01-4.531 4.531H4.532A4.532 4.532 0 010 158.426V4.532A4.532 4.532 0 014.532 0z" transform="rotate(-11.003 1215.416 -2473.327)"/><path id="Rectangle_89" data-name="Rectangle 89" class="cls-2" d="M4.531 0h220.024a4.531 4.531 0 014.531 4.531v153.9a4.532 4.532 0 01-4.532 4.532H4.531A4.531 4.531 0 010 158.427V4.531A4.531 4.531 0 014.531 0z" transform="rotate(-11.003 1094.436 -3729.376)"/><path id="Rectangle_90" data-name="Rectangle 90" class="cls-2" d="M4.531 0h220.024a4.532 4.532 0 014.532 4.532v153.894a4.532 4.532 0 01-4.532 4.532H4.532A4.532 4.532 0 010 158.426V4.531A4.531 4.531 0 014.531 0z" transform="rotate(-11.003 973.45 -4985.42)"/><path id="Path_236" data-name="Path 236" class="cls-2" d="M673.724 249.573l-20.418-105.016a11.81 11.81 0 00-13.848-9.337l-201.689 39.217a11.812 11.812 0 00-9.34 13.845l26.6 136.781a11.812 11.812 0 0013.845 9.337l201.692-39.216a11.64 11.64 0 003.161-1.16z" transform="translate(780.741 -128.724)"/><path id="Path_237" data-name="Path 237" class="cls-2" d="M527.358 132.592a11.775 11.775 0 00-7.786 13.379l7.786 40.042z" transform="translate(927.107 -132.592)"/></g></g></svg>