<svg xmlns="http://www.w3.org/2000/svg" width="1538.07" height="336.06"><defs><style>.cls-2{fill:#0b6868}.cls-3{fill:none}.cls-4{fill:#fff}</style></defs><g id="Group_617" data-name="Group 617" transform="translate(-19.772 -36.584)" style="isolation:isolate" opacity=".052"><g id="Group_613" data-name="Group 613" transform="translate(19.772 37.238)"><path id="Path_901" data-name="Path 901" class="cls-2" d="M732.1 75.891a6.7 6.7 0 01.471-2.513c.044.069.094.17.145.239a7.544 7.544 0 01.119.754c.031.251.069.5.075.754s.031.509.031.766-.013.515-.038.773l-1.169 17.3c.019-.264.025-.528.031-.785s-.013-.521-.025-.785-.038-.509-.075-.766a6.708 6.708 0 00-.126-.766 25.839 25.839 0 01-.119-4.919l.679-10.052m-3.229-8.752c1.03 1.137.967 3.971.923 4.812l-.666 10.021c-.081.974-.383 3.141-1.388 2.312a1.168 1.168 0 01-.126-.119l-.132-.113a1.168 1.168 0 00-.126-.126c-.044-.044-.094-.082-.126-.119a20.255 20.255 0 00-1.313-1.068c-.459-.358-.949-.71-1.47-1.043s-1.062-.679-1.627-1.005-1.181-.647-1.8-.961a5.122 5.122 0 01-2.1-4.618l.616-9.964c.2-2.017 1.25-3.041 2.563-2.5a32.938 32.938 0 013.455 1.941c.534.333 1.024.672 1.489 1.024s.9.7 1.319 1.062l.132.113.126.119c.044.038.082.082.132.119s.082.075.126.113m-21-9.5a4.419 4.419 0 013.072 4.473l-.584 9.958c-.214 2.017-1.539 3.022-3.462 2.614q-1.621-.424-3.355-.829c-1.137-.27-2.331-.534-3.556-.792s-2.494-.5-3.788-.748-2.633-.49-4-.723c-2.563-.54-4.241-2.2-4.272-4.234l.5-9.952c.226-2.029 2.1-3.173 4.656-2.852 1.382.239 2.727.471 4.04.716s2.576.509 3.8.76c1.244.258 2.431.521 3.594.792s2.274.534 3.361.817M674.2 51.886a3.947 3.947 0 013.405 4.021l-.452 9.958a3.243 3.243 0 01-3.707 3.078c-1.137-.132-2.287-.276-3.437-.4s-2.318-.264-3.493-.4-2.343-.245-3.537-.364-2.381-.245-3.587-.364a2.2 2.2 0 01-1.319-.553 2.3 2.3 0 01-.289-.408c-.138-.239-.113-.534-.239-.773-.4-.735-1.319-1.131-1.332-2.1l.377-9.989a1.6 1.6 0 01.327-1.03c.3-.408.823-.471 1.156-.836.283-.314.3-.785.622-1.093a2.025 2.025 0 011.357-.3c1.213.126 2.413.239 3.613.371s2.387.245 3.562.371 2.35.264 3.512.4 2.318.27 3.462.408m-29.239-2.871c1.7.245 2.8 1.74 2.821 3.82l-.333 10c-.157 2.029-1.351 3.33-3.047 3.3l-2.808-.2c-.942-.075-1.878-.138-2.821-.2s-1.9-.132-2.859-.195-1.916-.119-2.884-.182a3.467 3.467 0 01-2.947-3.726l.258-10.014c.151-2.08 1.395-3.418 3.173-3.405.961.063 1.929.126 2.9.195.955.069 1.916.126 2.871.195s1.9.132 2.846.207 1.891.144 2.827.214m-27.273-1.7c1.86.195 3.047 1.64 3.091 3.757L620.55 61.1c-.144 2.073-1.382 3.38-3.235 3.4-1.012-.05-2.017-.094-3.041-.132s-2.029-.088-3.053-.132-2.042-.075-3.078-.113-2.067-.082-3.11-.119a3.529 3.529 0 01-3.229-3.663l.157-10.058a3.4 3.4 0 013.367-3.493c1.049.038 2.086.082 3.129.113s2.073.088 3.1.138l3.078.132c1.018.05 2.036.094 3.053.145m-29.368-1.049a3.577 3.577 0 013.361 3.7l-.113 10.077a3.416 3.416 0 01-3.424 3.493c-1.081-.025-2.174-.05-3.261-.069l-3.28-.057a493.95 493.95 0 00-3.286-.05L575 63.326a3.6 3.6 0 01-3.506-3.613l.044-10.134A3.553 3.553 0 01575.089 46c1.118.025 2.237.038 3.342.063l3.317.057c1.106.025 2.2.044 3.3.075s2.18.044 3.273.075m-31.344-.434A3.679 3.679 0 01560.6 49.5v10.14a3.59 3.59 0 01-3.6 3.575h-3.449c-1.162.006-2.331.006-3.481.013s-2.331.013-3.506.013-2.337.019-3.518.031a3.669 3.669 0 01-3.736-3.572l-.088-10.2a3.679 3.679 0 013.694-3.669c1.187-.006 2.369-.006 3.543-.006s2.356-.006 3.531-.006 2.331 0 3.506.006 2.325 0 3.481.006m-33.2.163a3.77 3.77 0 013.883 3.619l.132 10.222a3.735 3.735 0 01-3.744 3.669c-1.219.025-2.431.05-3.65.069l-3.669.069c-1.219.031-2.45.057-3.688.088s-2.463.057-3.7.088a3.788 3.788 0 01-3.983-3.531l-.232-10.266a3.819 3.819 0 013.851-3.77c1.244-.031 2.494-.05 3.732-.075l3.707-.069c1.238-.013 2.469-.038 3.694-.063s2.456-.031 3.669-.05m-34.925.754a3.882 3.882 0 014.134 3.575l.276 10.31a3.888 3.888 0 01-3.9 3.77c-1.282.038-2.544.082-3.82.132s-2.557.088-3.839.138-2.57.094-3.851.145-2.582.1-3.883.144c-2.356-.006-4-1.376-4.209-3.487l-.364-10.366c.038-2.155 1.6-3.669 3.971-3.864 1.3-.05 2.607-.094 3.9-.132l3.883-.132c1.288-.044 2.582-.082 3.864-.113s2.57-.082 3.845-.119m-36.5 1.319c2.425 0 4.128 1.4 4.335 3.55l.44 10.4c-.044 2.155-1.571 3.638-4.008 3.864-1.319.063-2.645.119-3.977.188s-2.664.138-4 .2-2.67.138-4.008.214-2.683.132-4.027.207c-2.463.025-4.209-1.332-4.448-3.462l-.534-10.467c.019-2.174 1.621-3.732 4.1-3.964 1.351-.069 2.7-.126 4.059-.188 1.338-.069 2.689-.132 4.04-.188l4.021-.188c1.338-.05 2.676-.107 4-.17m-37.928 1.879c2.513-.025 4.291 1.363 4.536 3.525l.591 10.5c0 2.149-1.615 3.707-4.1 3.964-1.363.088-2.752.17-4.121.258s-2.764.17-4.153.258c-1.37.1-2.758.182-4.146.27l-4.176.282c-2.538.057-4.354-1.288-4.624-3.443L393.529 55c-.019-2.205 1.621-3.8 4.165-4.065 1.4-.088 2.8-.17 4.2-.258s2.789-.163 4.19-.245c1.382-.088 2.783-.157 4.172-.245s2.771-.157 4.159-.232m-39.225 2.427c2.6-.069 4.467 1.307 4.75 3.5l.76 10.611c.025 2.167-1.608 3.77-4.172 4.065-1.414.107-2.827.207-4.247.314s-2.846.214-4.272.327-2.846.214-4.285.32l-4.272.339c-2.62.094-4.511-1.244-4.819-3.418l-.867-10.687c-.056-2.23 1.6-3.864 4.209-4.165 1.445-.107 2.89-.207 4.329-.314s2.884-.2 4.31-.308 2.865-.195 4.291-.3c1.439-.088 2.871-.188 4.285-.283m-40.328 2.965c2.676-.094 4.618 1.269 4.944 3.487l.936 10.724c.05 2.193-1.608 3.839-4.247 4.178-1.439.119-2.9.245-4.348.371s-2.909.251-4.366.383-2.915.251-4.379.383c-1.445.132-2.9.27-4.366.39-2.67.138-4.624-1.2-4.982-3.4l-1.062-10.806c-.075-2.255 1.589-3.933 4.266-4.272 1.47-.126 2.947-.245 4.417-.371s2.94-.239 4.4-.364 2.934-.239 4.392-.352 2.921-.232 4.392-.352m-41.214 3.506c2.72-.132 4.712 1.231 5.089 3.474l1.118 10.85c.1 2.224-1.577 3.9-4.241 4.278-1.483.138-2.959.289-4.435.427l-4.442.44c-1.483.151-2.965.289-4.448.446s-2.972.3-4.454.446c-2.72.157-4.731-1.169-5.12-3.386L271.465 64.9c-.138-2.287 1.546-4 4.272-4.385 1.5-.138 2.978-.276 4.479-.421s2.99-.276 4.486-.421 2.984-.27 4.479-.415 2.978-.27 4.467-.4m-41.892 4.022c2.764-.163 4.812 1.194 5.215 3.462l1.329 10.982c.151 2.262-1.52 3.977-4.228 4.385-1.489.163-3 .327-4.492.5s-3 .32-4.492.5c-1.5.157-3 .327-4.5.5-1.489.163-3 .333-4.5.509-2.752.195-4.819-1.131-5.258-3.367l-1.451-11.076c-.157-2.318 1.514-4.077 4.26-4.492 1.514-.157 3.028-.327 4.542-.477s3.022-.327 4.536-.484 3.022-.314 4.53-.465 3.016-.314 4.517-.465m-42.282 4.549c2.771-.195 4.856 1.162 5.315 3.455L216.323 82c.163 2.287-1.483 4.046-4.2 4.492-1.514.176-3.022.364-4.523.547s-3.016.371-4.523.553-3.016.377-4.53.559-3.009.371-4.517.565c-2.764.226-4.85-1.1-5.321-3.367l-1.671-11.221c-.207-2.343 1.439-4.146 4.184-4.586 1.527-.182 3.034-.364 4.561-.54s3.035-.358 4.561-.534 3.041-.352 4.561-.521 3.047-.352 4.567-.521m-42.42 5.064c2.771-.232 4.888 1.118 5.384 3.449l1.749 11.261c.22 2.325-1.4 4.128-4.115 4.605q-2.262.292-4.517.6c-1.508.2-3.016.4-4.511.6s-3.009.408-4.511.609-3.009.415-4.5.628c-2.758.258-4.863-1.062-5.378-3.367l-1.883-11.352c-.258-2.381 1.344-4.222 4.071-4.706 1.527-.195 3.034-.4 4.555-.591s3.028-.383 4.549-.591c1.514-.188 3.034-.383 4.549-.572s3.041-.383 4.561-.572m-42.245 5.555c2.771-.258 4.913 1.093 5.453 3.443l1.966 11.422c.258 2.35-1.313 4.2-4.027 4.712-1.489.22-2.978.427-4.467.647s-2.965.446-4.454.666l-4.454.66q-2.224.33-4.436.679c-2.714.276-4.825-1.037-5.39-3.361L102.909 85.4c-.314-2.406 1.231-4.3 3.933-4.806q2.224-.33 4.479-.647c1.5-.214 2.99-.421 4.492-.635s2.991-.427 4.5-.635 3-.415 4.5-.628M83.176 84.09c2.714-.283 4.844 1.068 5.428 3.455l2.18 11.56c.314 2.381-1.194 4.272-3.832 4.819q-2.2.349-4.379.7c-1.458.239-2.909.471-4.373.71l-4.348.716c-1.458.245-2.89.484-4.341.723-2.658.314-4.768-.993-5.372-3.349l-2.33-11.669c-.358-2.444 1.131-4.373 3.763-4.919q2.186-.349 4.385-.691c1.458-.232 2.928-.465 4.392-.691l4.4-.679 4.423-.685m560.058-2.236c.685-5.893 3.4-8.84 8.293-9.034.484.038.955.082 1.439.126s.955.082 1.426.119l1.42.132c.477.044.942.088 1.42.126 2.589.251 5.158.509 7.684.773s5.007.54 7.451.836 4.856.591 7.225.911 4.7.647 6.993.986q7.765 1.159 14.123 2.538c4.234.924 8.029 1.922 11.353 3a59.157 59.157 0 018.676 3.5 28.7 28.7 0 016.082 4.046A16.172 16.172 0 01729 92.289a12.889 12.889 0 011.451 2.5 12.191 12.191 0 01.748 2.62 11.913 11.913 0 01.113 2.727c-6.559 97.3-6.559 97.3-8.72 128.435a17 17 0 00-.082-3.053 13.985 13.985 0 00-.685-2.921 14.154 14.154 0 00-1.338-2.764 15.788 15.788 0 00-2.048-2.607 25.224 25.224 0 00-5.749-4.392 49.252 49.252 0 00-8.218-3.719 94.472 94.472 0 00-10.762-3.078q-6.031-1.4-13.4-2.5c-2.186-.327-4.392-.634-6.647-.93s-4.53-.578-6.854-.842-4.693-.515-7.087-.748-4.838-.465-7.3-.672l-1.351-.107c-.446-.038-.9-.069-1.351-.113s-.9-.069-1.351-.1-.9-.069-1.37-.1c-4.618-.886-7-3.927-7.307-9.3l3.538-108.771m-17.076-10.788c5.145.886 7.809 4.209 8.155 10.184l-3.141 108.9c-.653 5.416-3.279 8.1-8.268 8.456-11.774-.434-24.15-.622-37.048-.565-12.961.05-26.462.345-40.428.854a1596.69 1596.69 0 00-43.469 2.212 2025.454 2025.454 0 00-46.183 3.512c-6.257.283-10.85-2.99-11.422-8.149l-5.522-113.35c.044-5.868 4.4-10.071 11.1-10.718a2534.708 2534.708 0 0148.778-2.01c15.732-.49 31.048-.8 45.85-.924 14.714-.119 28.944-.057 42.6.207 13.577.258 26.613.729 39.009 1.388M413.7 74.49c7.288.163 11.334 3.242 12.4 9.4l6.125 113.7c-.4 5.742-3.795 9-10.712 10.285q-24.634 2.526-49.978 5.623a2867.825 2867.825 0 00-51.605 6.8 2814.323 2814.323 0 00-52.692 7.935 2812.104 2812.104 0 00-53.182 9.022c-7.118.986-12.5-1.96-13.709-7.52l-18.521-121.4c-.283-9.179 7.024-11.811 11.4-12.559a3504.515 3504.515 0 0156.713-6.81c18.716-2.1 37.438-4.046 56.053-5.83q27.593-2.658 54.759-4.844 26.83-2.149 52.943-3.807m307.74 159.245a5.645 5.645 0 01.352-1.96.657.657 0 00.132.075c.013.082.05.176.057.251.044.283.082.572.107.867s.05.572.056.867.019.591.013.886-.019.591-.038.892l-1.03 15.191.038-.9c0-.3 0-.6-.012-.9s-.025-.591-.063-.88a7.946 7.946 0 00-.094-.867 28.613 28.613 0 01-.113-4.681l.6-8.846m-2.978-9.009c.961 1.244.9 3.788.873 4.536l-.591 8.808c-.088 1.049-.371 2.664-1.275 1.74-.038-.044-.075-.094-.113-.138l-.119-.126c-.038-.05-.088-.094-.119-.138a1.2 1.2 0 01-.126-.132c-.383-.408-.785-.8-1.206-1.194-.44-.39-.9-.773-1.37-1.15s-.993-.748-1.52-1.1-1.1-.716-1.684-1.062a5.014 5.014 0 01-1.979-4.285l.54-8.777c.176-1.778 1.156-2.582 2.381-1.973.6.346 1.162.691 1.7 1.043s1.055.723 1.539 1.1.942.748 1.37 1.137.842.785 1.225 1.187c.038.038.075.088.126.132l.119.126c.038.044.075.094.119.138l.113.126M698.85 214.4a4.141 4.141 0 012.89 4.077l-.515 8.764c-.2 1.8-1.407 2.607-3.242 2.161-1.011-.289-2.054-.578-3.129-.848s-2.193-.534-3.342-.792-2.337-.515-3.556-.754-2.469-.478-3.757-.7c-2.413-.509-3.99-2-4.021-3.782l.44-8.77c.214-1.791 1.96-2.777 4.354-2.463 1.3.239 2.563.471 3.782.716a126.118 126.118 0 016.942 1.548c1.093.279 2.13.553 3.154.848m-31.576-5.6a3.588 3.588 0 013.21 3.543l-.408 8.783a2.985 2.985 0 01-3.474 2.708c-1.055-.126-2.142-.245-3.223-.364s-2.186-.226-3.279-.339-2.205-.214-3.323-.32-2.237-.2-3.361-.3a2.154 2.154 0 01-1.25-.49 2.493 2.493 0 01-.27-.352c-.126-.207-.113-.471-.226-.685-.377-.635-1.238-.955-1.263-1.847l.333-8.783a1.53 1.53 0 01.308-.917c.283-.364.779-.415 1.093-.741.27-.27.283-.7.578-.961a1.953 1.953 0 011.275-.27c1.131.1 2.268.195 3.386.3s2.243.22 3.342.333 2.205.22 3.3.339 2.18.232 3.254.358m-27.455-2.375a3.087 3.087 0 012.664 3.33l-.3 8.8a2.861 2.861 0 01-2.859 2.934c-.873-.044-1.753-.1-2.626-.151-.9-.05-1.784-.094-2.664-.138l-2.689-.132a302.44 302.44 0 00-2.7-.119 3.075 3.075 0 01-2.783-3.236l.245-8.814a2.993 2.993 0 012.965-3.047c.9.044 1.822.088 2.727.126s1.8.088 2.689.138l2.676.151c.892.05 1.778.1 2.651.157m-25.6-1.087a3.1 3.1 0 012.9 3.248l-.207 8.833a3.018 3.018 0 01-3.028 3.047c-.949-.019-1.891-.044-2.846-.057s-1.916-.038-2.877-.057-1.922-.025-2.89-.044-1.941-.019-2.921-.031a3.1 3.1 0 01-3.034-3.154l.138-8.852a3.188 3.188 0 013.154-3.154c.993.013 1.96.031 2.934.05s1.948.025 2.915.05 1.929.031 2.89.05 1.922.044 2.871.069m-27.562-.27a3.145 3.145 0 013.154 3.179l-.1 8.865a3.2 3.2 0 01-3.21 3.154c-1.024.006-2.042.019-3.053.025s-2.048.031-3.072.044-2.061.025-3.091.044-2.073.031-3.116.056a3.171 3.171 0 01-3.292-3.085l.038-8.909a3.362 3.362 0 013.336-3.242c1.043-.019 2.086-.031 3.135-.044s2.073-.031 3.1-.038 2.067-.025 3.1-.031l3.066-.019m-29.39.515a3.211 3.211 0 013.4 3.1v8.921a3.416 3.416 0 01-3.367 3.261c-1.087.031-2.167.075-3.254.107s-2.161.082-3.254.119-2.186.088-3.292.138c-1.087.031-2.193.082-3.3.132a3.219 3.219 0 01-3.5-3.016l-.075-8.953a3.491 3.491 0 013.468-3.355c1.106-.044 2.218-.088 3.324-.126s2.2-.088 3.3-.119 2.193-.069 3.279-.107 2.174-.069 3.267-.107m-31.105 1.275a3.273 3.273 0 013.625 3.034l.126 8.984a3.585 3.585 0 01-3.524 3.361c-1.137.057-2.262.119-3.411.188s-2.287.126-3.437.195-2.3.144-3.455.214-2.306.151-3.462.22c-2.117.038-3.581-1.118-3.726-2.953l-.2-9.016a3.659 3.659 0 013.6-3.462l3.5-.207c1.162-.069 2.318-.126 3.468-.195s2.306-.119 3.462-.182 2.293-.126 3.437-.182m-32.688 2c2.18-.057 3.694 1.106 3.851 2.984l.245 9.034c-.063 1.86-1.489 3.223-3.663 3.474-1.181.082-2.375.176-3.569.27s-2.387.182-3.594.276l-3.606.283q-1.8.151-3.619.3c-2.205.088-3.751-1.049-3.933-2.9l-.327-9.078c.044-1.9 1.5-3.292 3.719-3.562 1.225-.094 2.444-.195 3.644-.283 1.219-.094 2.431-.188 3.631-.27s2.412-.182 3.625-.27 2.387-.17 3.594-.258m-34.114 2.708c2.255-.1 3.845 1.043 4.04 2.928l.371 9.1c-.044 1.878-1.5 3.279-3.744 3.587-1.231.107-2.482.226-3.719.339l-3.732.358c-1.25.119-2.5.232-3.757.358s-2.494.245-3.751.371c-2.306.132-3.927-.986-4.147-2.84l-.471-9.16c.031-1.916 1.533-3.355 3.851-3.669 1.263-.113 2.519-.239 3.782-.358s2.519-.226 3.77-.346 2.513-.226 3.751-.339q1.885-.17 3.757-.333m-35.421 3.393c2.35-.145 4.008.993 4.234 2.884l.515 9.191c-.019 1.885-1.52 3.33-3.832 3.669-1.282.151-2.563.283-3.851.427s-2.582.289-3.87.427l-3.876.433c-1.294.151-2.588.3-3.883.446-2.362.176-4.052-.917-4.3-2.8l-.609-9.235c-.006-1.935 1.52-3.411 3.889-3.776 1.313-.138 2.614-.283 3.92-.427s2.6-.283 3.9-.421 2.595-.283 3.889-.415 2.582-.27 3.876-.408m-36.531 4.1c2.412-.188 4.14.917 4.4 2.827l.672 9.273c.006 1.9-1.527 3.4-3.908 3.782l-3.964.49q-1.979.254-3.964.5c-1.332.17-2.664.333-3.989.5s-2.651.346-3.989.515c-2.425.226-4.184-.854-4.461-2.745l-.767-9.323c-.038-1.954 1.514-3.474 3.952-3.883q2.007-.245 4.015-.5c1.345-.163 2.689-.327 4.015-.49s2.664-.327 4-.484 2.658-.32 3.99-.471m-37.52 4.718c2.482-.232 4.278.867 4.58 2.789l.81 9.355c.044 1.935-1.508 3.455-3.964 3.9-1.351.189-2.7.371-4.046.559s-2.7.377-4.052.572-2.714.383-4.071.578-2.7.389-4.065.578c-2.488.264-4.291-.8-4.605-2.7l-.917-9.424c-.069-1.966 1.489-3.531 3.977-3.983 1.363-.188 2.727-.371 4.1-.559s2.727-.377 4.1-.559 2.714-.371 4.084-.553 2.72-.371 4.077-.547m-38.267 5.353c2.513-.27 4.366.81 4.693 2.758l.974 9.455c.088 1.941-1.47 3.512-3.958 3.983-1.37.214-2.745.427-4.115.635l-4.128.641-4.121.641c-1.382.214-2.752.44-4.121.653-2.526.3-4.379-.748-4.725-2.676l-1.093-9.512c-.1-2 1.464-3.6 3.977-4.084 1.388-.207 2.771-.427 4.172-.641q2.073-.311 4.146-.616c1.388-.22 2.771-.421 4.159-.628s2.758-.4 4.14-.609m-38.8 5.981c2.551-.314 4.429.76 4.794 2.72l1.15 9.55c.119 1.973-1.426 3.575-3.945 4.1-1.388.226-2.764.459-4.159.691s-2.771.477-4.159.71-2.777.471-4.159.7-2.783.477-4.165.716c-2.557.346-4.448-.691-4.831-2.639l-1.269-9.606c-.132-2.023 1.42-3.669 3.971-4.2l4.2-.7 4.19-.7c1.4-.226 2.789-.452 4.2-.679q2.083-.339 4.184-.672m-39.109 6.572c2.563-.352 4.479.71 4.888 2.689l1.319 9.65c.151 2-1.382 3.638-3.9 4.2-1.395.251-2.783.509-4.178.76s-2.783.509-4.172.766-2.783.515-4.178.779-2.783.515-4.172.785c-2.551.371-4.467-.653-4.882-2.62l-1.451-9.713c-.17-2.048 1.363-3.732 3.889-4.3q2.12-.377 4.209-.76c1.4-.251 2.815-.5 4.209-.748l4.209-.748c1.4-.245 2.808-.5 4.209-.741m-39.115 7.143c2.551-.377 4.492.666 4.944 2.67l1.5 9.757c.182 2.01-1.313 3.707-3.826 4.291q-2.083.415-4.165.823l-4.153.829c-1.382.283-2.764.553-4.153.836s-2.764.565-4.146.842c-2.526.408-4.461-.6-4.907-2.588l-1.621-9.826c-.22-2.061 1.263-3.782 3.782-4.392 1.395-.27 2.783-.547 4.184-.817 1.382-.27 2.783-.547 4.184-.817s2.783-.54 4.2-.8c1.388-.27 2.789-.534 4.184-.8m-38.845 7.709c2.538-.421 4.5.609 4.976 2.639l1.69 9.857c.226 2.042-1.257 3.776-3.738 4.4-1.376.289-2.739.584-4.1.88s-2.733.591-4.1.88-2.714.59-4.084.892l-4.084.9c-2.475.433-4.4-.565-4.894-2.576l-1.816-9.933c-.258-2.086 1.175-3.851 3.65-4.492 1.37-.283 2.739-.578 4.109-.867s2.745-.584 4.134-.873c1.357-.289 2.739-.578 4.121-.861s2.758-.572 4.14-.854m-38.192 8.211c2.475-.446 4.417.584 4.926 2.632l1.885 9.964c.258 2.061-1.143 3.832-3.562 4.492l-4.008.936c-1.338.314-2.67.622-4 .942s-2.664.622-3.989.936-2.658.635-3.977.955c-2.431.477-4.354-.528-4.882-2.544l-2-10.04c-.3-2.117 1.081-3.914 3.493-4.593 1.326-.308 2.664-.616 4-.924l4.027-.93c1.338-.308 2.683-.609 4.033-.911s2.7-.616 4.052-.917m-52.4 29.415l2.054 9.543c49.023-13.105 103.838-25.269 159.854-35.8 53.879-10.121 109.1-18.785 161.971-25.438 51.241-6.452 100.747-11.07 145.486-13.369 43.846-2.249 83.678-2.287 116.8.408 2.444.195 4.838.408 7.212.641s4.706.471 7 .735 4.549.534 6.785.823c2.218.289 4.4.591 6.553.917q7.285 1.093 13.237 2.488a93.25 93.25 0 0110.636 3.1 48.044 48.044 0 018.111 3.757 25.2 25.2 0 015.667 4.461c2.57 3.581 3.009 4.517 3.33 5.485.8 4 .81 5.045.748 6.107q6.465-95.209 12.923-190.412c-.27-3.487-.528-4.335-.886-5.164-2.086-3.21-2.821-3.983-3.694-4.731a29.033 29.033 0 00-6.176-3.952 63.631 63.631 0 00-8.789-3.443q-5.07-1.593-11.5-2.972t-14.305-2.551q-3.477-.518-7.068-1.005a646.3 646.3 0 00-14.871-1.785c-2.55-.27-5.152-.54-7.79-.8-35.768-3.408-78.76-4.77-126.149-4.432-48.439.352-102.148 2.488-157.906 6.107-57.7 3.751-118.15 9.122-177.389 15.807-61.808 6.967-122.573 15.4-177.244 24.873L22.4 95.732l.157-.27c4.322-2.161 5.73-2.412 7.143-2.658s2.84-.49 4.26-.735 2.846-.49 4.285-.729q2.13-.368 4.278-.735c1.244.377 2.884.867 4.128 1.238 1.1 4.178 2.551 9.751 3.656 13.941-.383 1.125-.9 2.632-1.275 3.763a32.011 32.011 0 01-6.59 1.9c-1.414.258-2.833.509-4.234.76s-2.808.515-4.222.766l-4.19.773a503.177 503.177 0 01-3.713-.93c.565 2.626 1.313 6.125 1.878 8.752q14.852-2.818 30.263-5.51 15.295-2.686 31.055-5.246 15.625-2.526 31.633-4.957 15.87-2.4 32.029-4.668c13.137-.3 13.137-.3 34.039 130.992-.591 8.048-3.87 9.612-10.618 12.113q-15.078 2.94-29.918 6-14.909 3.091-29.49 6.3a2180.154 2180.154 0 00-28.887 6.59q-14.315 3.383-28.1 6.861l2.023 9.418.151-.251c3.952-2.23 5.246-2.551 6.534-2.877s2.582-.647 3.883-.974 2.595-.647 3.9-.974 2.607-.635 3.927-.955c1.118.226 2.614.534 3.738.76.949 3.587 2.224 8.356 3.179 11.931-.358 1.024-.829 2.381-1.2 3.411a33.229 33.229 0 01-6.031 2.155q-1.941.49-3.87.993c-1.288.327-2.563.66-3.851.993s-2.557.66-3.832 1c-.138 1.005-2.35-.377-3.367-.534" transform="translate(-19.772 -36.688)"/></g><path id="Path_902" data-name="Path 902" class="cls-3" d="M733.517 67.586Q727.052 162.8 720.594 258a16.645 16.645 0 00-.075-3.122 13.581 13.581 0 00-.672-2.984 13.959 13.959 0 00-1.313-2.821 16.6 16.6 0 00-2.017-2.664 25.573 25.573 0 00-5.667-4.467 48.551 48.551 0 00-8.111-3.751 90.761 90.761 0 00-10.636-3.1q-5.965-1.395-13.237-2.488-3.223-.49-6.553-.917c-2.237-.289-4.492-.565-6.785-.823s-4.63-.5-7-.741-4.768-.44-7.212-.635c-33.122-2.7-72.953-2.651-116.8-.4-44.738 2.293-94.232 6.911-145.486 13.357-52.874 6.653-108.092 15.323-161.971 25.444-56.009 10.536-110.831 22.693-159.854 35.8L19.772 83.525c54.671-9.474 115.436-17.905 177.244-24.873C256.255 51.967 316.706 46.6 374.4 42.845c55.758-3.619 109.468-5.755 157.906-6.107 47.39-.339 90.381 1.024 126.123 4.448 2.639.258 5.233.515 7.79.8s5.07.559 7.545.861 4.926.609 7.326.924 4.75.66 7.068 1.005q7.878 1.178 14.305 2.551t11.5 2.972a63.631 63.631 0 018.789 3.443 29.033 29.033 0 016.176 3.952A16.179 16.179 0 01731.161 60a12.32 12.32 0 011.47 2.425 11 11 0 01.76 2.538 10.457 10.457 0 01.126 2.623z" transform="translate(0 .55)"/><g id="Group_614" data-name="Group 614" transform="translate(672.362 68.306)"><path id="Path_903" data-name="Path 903" class="cls-2" d="M184.429 59.187a30.122 30.122 0 01.748-5.1c.1-.289.176-.578.245-.861s.132-.565.188-.848.094-.565.132-.842.063-.559.082-.836L184.643 68c-.019.283-.044.565-.088.848s-.075.572-.138.861-.107.572-.182.861-.157.584-.239.88c-.031.069-.057.151-.082.22l-.107-.006a7.244 7.244 0 01-.075-2.318l.7-10.159m-3.072 2.494c.163-.226.163-.226.377-.314.182.094.49.251.371 2.425l-.685 10.215a13.973 13.973 0 01-1.244 5.183c-.32.509-.678 1.018-1.037 1.52s-.735 1.03-1.118 1.539-.785 1.037-1.2 1.552-.842 1.043-1.288 1.571c-1.118 1.194-1.187-1.03-1.2-1.288 0-.214.013-.5.025-.7l.672-10.322a10.94 10.94 0 011.659-5.334c.44-.515.867-1.024 1.288-1.533s.81-1.011 1.2-1.514.773-1.011 1.131-1.508.71-1 1.049-1.489M168.836 76.1c.968-.873 1.514-.082 1.426 2.048l-.653 10.391a9.984 9.984 0 01-1.878 5.39c-.54.54-1.074 1.093-1.615 1.64s-1.1 1.106-1.646 1.659-1.106 1.106-1.665 1.659-1.125 1.118-1.677 1.671c-1.056.93-1.64-.276-1.583-1.929l.622-10.517A10.563 10.563 0 01162.2 82.6c.565-.553 1.143-1.1 1.7-1.633s1.112-1.093 1.665-1.633 1.118-1.081 1.659-1.621 1.093-1.074 1.621-1.615M152.922 91.63c1.043-.942 1.665-.163 1.6 1.985l-.609 10.586a10.181 10.181 0 01-2.017 5.579c-.584.591-1.15 1.181-1.715 1.772s-1.131 1.187-1.684 1.784-1.1 1.181-1.64 1.772-1.081 1.2-1.608 1.791c-1.256 1.3-1.4-.76-1.426-1.187 0-.207 0-.5.013-.716l.572-10.718a10.819 10.819 0 011.835-5.679c.521-.584 1.062-1.162 1.6-1.747s1.1-1.169 1.659-1.747 1.118-1.162 1.684-1.74 1.15-1.156 1.734-1.734m-14.111 16.253c.622-.823.955-.188 1.056.685a8.2 8.2 0 01.031 1.363l-.553 10.775a14.055 14.055 0 01-1.483 5.667c-.39.6-.767 1.194-1.131 1.778-.345.591-.7 1.181-1.018 1.772s-.616 1.175-.9 1.765c-.27.584-.54 1.162-.773 1.747a1.389 1.389 0 01-.27.415c-.17-.157-.308-.289-.214-2.438l.54-10.894a25.053 25.053 0 01.861-5.7c.245-.572.5-1.137.785-1.715s.591-1.156.917-1.734.653-1.15 1.024-1.734c.352-.584.735-1.162 1.131-1.747m-.559 33.637c.578-7.087 1.985-11.906 4.542-15.625 1.238-1.483 2.544-2.99 3.889-4.486s2.752-2.978 4.172-4.461 2.865-2.959 4.322-4.429 2.909-2.909 4.366-4.354c3.053-3.072 6.107-6.113 8.972-9.129 2.827-2.978 5.472-5.924 7.753-8.8a50.719 50.719 0 005.548-8.337 20.174 20.174 0 002.406-7.74l-8.808 128.422a26.9 26.9 0 01-2.356 8.739 62.947 62.947 0 01-5.378 9.468c-2.193 3.279-4.737 6.634-7.457 10.04-2.746 3.43-5.673 6.911-8.595 10.4-1.395 1.646-2.79 3.311-4.178 4.97q-2.092 2.516-4.14 5.045c-1.357 1.69-2.7 3.38-3.983 5.076s-2.544 3.4-3.719 5.089a8.105 8.105 0 01-2.142 1.715c-1.081-1.156-1.269-1.357-1.219-5.177l6.006-116.435m-6.283 5.811a12.511 12.511 0 01.119-1.351c.057-.452.132-.9.22-1.363s.195-.911.32-1.37.264-.924.415-1.388l.346-.8c.289.082.678.2.967.289a18.381 18.381 0 01.39 5.874l-5.881 117.051a78.788 78.788 0 01-2.614 15.128c-.157.515-.283 1.03-.4 1.546s-.232 1.024-.32 1.527-.157 1.018-.22 1.52-.1 1.005-.113 1.508l6.773-138.166m41.6 71.113a32.256 32.256 0 01.716-4.888c.088-.339.157-.666.232-1s.132-.66.182-.986.113-.66.151-.986.063-.635.094-.961l-1.049 15.2c-.025.32-.05.647-.094.974s-.088.66-.138.986-.113.666-.195 1.005-.138.672-.232 1.012a2.975 2.975 0 01-.163.415c-.138-.157-.207-.232-.126-1.853l.622-8.915m-2.99 4c.207-.364.245-.377.44-.484.163.075.383.176.3 1.879l-.6 8.953a15.034 15.034 0 01-1.162 5.007c-.327.584-.66 1.175-.993 1.772s-.7 1.187-1.081 1.791-.754 1.2-1.15 1.816-.8 1.213-1.231 1.828c-.8 1.1-1.037.251-1.112-.163a6.268 6.268 0 01-.025-1.087l.59-9.034a12.055 12.055 0 011.564-5.158c.421-.609.836-1.213 1.231-1.809s.779-1.2 1.15-1.791.729-1.181 1.081-1.772.679-1.162 1.005-1.747m-11.937 17.007c1.231-1.42 1.376.3 1.382.66.013.182 0 .434-.006.609l-.578 9.091a11.038 11.038 0 01-1.772 5.215c-.515.641-1.018 1.288-1.533 1.929s-1.043 1.294-1.558 1.941-1.056 1.3-1.583 1.948-1.062 1.3-1.6 1.954c-1.3 1.476-1.508-.528-1.508-.528a4.207 4.207 0 010-.628l.54-9.166a11.813 11.813 0 011.91-5.346c.54-.647 1.074-1.288 1.615-1.929.522-.647 1.056-1.288 1.583-1.929s1.043-1.282 1.571-1.91 1.03-1.275 1.533-1.91m-15.1 18.333c1.118-1.282 1.508-.251 1.558.553.006.182 0 .434-.013.622l-.515 9.223a11.39 11.39 0 01-1.916 5.416q-.811 1.027-1.621 2.073c-.54.685-1.068 1.376-1.6 2.073s-1.037 1.382-1.552 2.073-1.024 1.388-1.514 2.08c-1.03 1.332-1.288.276-1.344-.232a8.223 8.223 0 01-.019-.88l.5-9.311a12.007 12.007 0 011.721-5.5c.5-.685 1.005-1.363 1.52-2.048s1.03-1.37 1.564-2.054 1.062-1.363 1.6-2.048 1.081-1.37 1.621-2.042m-13.357 19.049c.314-.528.389-.547.641-.609.207.119.465.27.4 1.841l-.478 9.355a15.259 15.259 0 01-1.382 5.466 65.798 65.798 0 00-2.042 4.084c-.308.673-.591 1.357-.854 2.029s-.521 1.351-.748 2.01a1.547 1.547 0 01-.308.6c-.151-.113-.245-.2-.176-1.847l.465-9.436a26.784 26.784 0 01.81-5.453c.239-.66.49-1.319.76-1.985s.553-1.338.861-2 .634-1.344.974-2.01c.339-.685.7-1.357 1.074-2.036M133.7 112.08l-10.055 204.837a33.615 33.615 0 012.7-10.951 74.044 74.044 0 016.138-11.409c2.463-3.832 5.277-7.69 8.243-11.547 2.946-3.82 6.044-7.633 9.1-11.39 2.9-3.581 5.786-7.15 8.513-10.674 2.7-3.487 5.208-6.93 7.388-10.291a64.744 64.744 0 005.321-9.7 27.934 27.934 0 002.356-8.946l13.054-190.376a19.026 19.026 0 01-2.406 7.464 49.44 49.44 0 01-5.6 8.023c-2.306 2.758-4.976 5.585-7.841 8.45-2.884 2.884-5.962 5.818-9.053 8.758-3.273 3.091-6.571 6.226-9.713 9.374-3.173 3.185-6.182 6.377-8.808 9.556a55.942 55.942 0 00-6.534 9.537 22.616 22.616 0 00-2.8 9.286" transform="translate(-123.645 -41.633)"/><path id="Path_904" data-name="Path 904" class="cls-4" d="M130.589 114.167c.578-7.087 1.985-11.905 4.542-15.625 1.238-1.483 2.544-2.99 3.889-4.486s2.752-2.978 4.172-4.461 2.865-2.959 4.322-4.429 2.909-2.909 4.366-4.354c3.053-3.072 6.107-6.113 8.972-9.129 2.827-2.978 5.472-5.924 7.753-8.8a50.72 50.72 0 005.548-8.337 20.174 20.174 0 002.406-7.74l-8.809 128.427a26.9 26.9 0 01-2.356 8.739 62.947 62.947 0 01-5.378 9.468c-2.193 3.279-4.737 6.634-7.457 10.04-2.746 3.43-5.673 6.911-8.595 10.4-1.395 1.646-2.79 3.311-4.178 4.97q-2.092 2.516-4.14 5.045c-1.357 1.69-2.7 3.38-3.983 5.076s-2.544 3.4-3.719 5.089a8.1 8.1 0 01-2.142 1.715c-3.035-3.236 4.693-120.424 4.787-121.612" transform="translate(-115.982 -14.28)"/><path id="Path_905" data-name="Path 905" class="cls-4" d="M130.665 63.734a12.51 12.51 0 01.119-1.351c.057-.452.132-.9.22-1.363s.195-.911.32-1.37.264-.924.415-1.388l.346-.8c.289.082.678.2.967.289.559 2.293.559 2.293-5.491 122.925a78.786 78.786 0 01-2.614 15.128c-.157.515-.283 1.03-.4 1.546s-.232 1.024-.32 1.527-.157 1.018-.22 1.52-.1 1.005-.113 1.508l6.773-138.166" transform="translate(-122.34 41.964)"/></g><path id="Path_906" data-name="Path 906" class="cls-3" d="M186.458 41.632L173.4 232.019a27.859 27.859 0 01-2.356 8.94 65.936 65.936 0 01-5.321 9.707c-2.18 3.361-4.693 6.8-7.388 10.291-2.727 3.525-5.61 7.093-8.513 10.674-3.053 3.757-6.151 7.564-9.1 11.39-2.965 3.858-5.78 7.721-8.243 11.547a73.805 73.805 0 00-6.138 11.415 33.505 33.505 0 00-2.7 10.944L133.7 112.085a22.616 22.616 0 012.8-9.286 55.942 55.942 0 016.534-9.537c2.626-3.179 5.635-6.383 8.808-9.562 3.141-3.148 6.44-6.283 9.713-9.367 3.091-2.94 6.17-5.874 9.053-8.764 2.865-2.865 5.535-5.686 7.841-8.45a49.17 49.17 0 005.6-8.023 18.962 18.962 0 002.409-7.464z" transform="translate(548.717 26.668)"/><g id="Group_615" data-name="Group 615" transform="translate(670.562 54.697)"><path id="Path_907" data-name="Path 907" class="cls-2" d="M986.727 53.39c1.64.283 2.324 1.583 1.746 3.3l-3.185 8.268a4.118 4.118 0 01-4.015 2.595c-.9-.107-1.822-.214-2.745-.32l-2.745-.314c-.924-.107-1.841-.2-2.752-.308s-1.841-.2-2.764-.308c-1.627-.264-2.318-1.539-1.766-3.236l3.135-8.293a4.168 4.168 0 014.021-2.658c.923.1 1.847.207 2.771.308l2.764.314c.924.107 1.847.207 2.764.32s1.853.214 2.771.327M961.9 50.707c1.382.226 1.91 1.483 1.344 3.217l-3.116 8.293a3.971 3.971 0 01-3.55 2.708c-.779-.082-1.552-.151-2.325-.22s-1.564-.132-2.331-.207-1.552-.132-2.331-.195-1.552-.132-2.324-.188c-1.376-.207-1.9-1.439-1.351-3.135l3.072-8.318a4.027 4.027 0 013.55-2.777c.773.063 1.552.126 2.337.195l2.331.207c.792.063 1.564.138 2.35.207s1.558.144 2.343.214m-21.744-1.753c1.389.182 1.916 1.42 1.357 3.148l-3.041 8.324a4.06 4.06 0 01-3.518 2.783l-2.318-.145-2.306-.151c-.779-.044-1.545-.082-2.318-.132s-1.546-.088-2.318-.126c-1.363-.163-1.885-1.376-1.351-3.078l3.009-8.343a4.077 4.077 0 013.512-2.852c.773.038 1.545.082 2.318.126s1.545.094 2.325.145 1.545.094 2.324.144 1.545.107 2.324.157m-21.618-1.181c1.37.151 1.91 1.363 1.357 3.1l-2.984 8.362a4.107 4.107 0 01-3.474 2.852c-.767-.025-1.539-.05-2.306-.082s-1.533-.057-2.306-.082-1.533-.057-2.293-.075c-.779-.025-1.552-.05-2.318-.063-1.363-.126-1.9-1.313-1.37-3.034l2.94-8.381a4.227 4.227 0 013.487-2.934c.767.025 1.546.05 2.325.082s1.533.05 2.306.082 1.545.05 2.325.082l2.312.094m-21.556-.628c1.37.113 1.916 1.307 1.376 3.06l-2.929 8.391a4.24 4.24 0 01-3.449 2.928c-.779-.006-1.539-.013-2.312-.025s-1.533-.019-2.287-.025l-2.312-.019c-.773 0-1.539 0-2.306-.006-1.37-.094-1.916-1.263-1.395-2.984l2.89-8.425a4.3 4.3 0 013.462-3l2.331.019c.76.006 1.533.013 2.306.025s1.545.019 2.312.031l2.312.031m-21.549-.107c1.376.082 1.929 1.257 1.4 3l-2.871 8.45a4.329 4.329 0 01-3.43 3.009c-.766.006-1.539.019-2.306.025l-2.312.031c-.76.006-1.539.025-2.306.038s-1.539.031-2.312.05c-1.357-.063-1.916-1.219-1.407-2.947l2.833-8.469a4.38 4.38 0 013.449-3.085l2.318-.031c.773-.013 1.545-.025 2.312-.031s1.545-.019 2.312-.025l2.318-.019m-21.562.39c1.376.05 1.929 1.219 1.414 2.972l-2.821 8.494a4.4 4.4 0 01-3.411 3.085c-.773.025-1.546.057-2.318.082s-1.539.05-2.306.082l-2.318.094-2.318.094c-1.37-.025-1.941-1.169-1.439-2.9l2.777-8.532a4.467 4.467 0 013.443-3.154c.767-.031 1.545-.057 2.312-.088s1.558-.05 2.331-.075 1.552-.05 2.331-.082 1.546-.05 2.325-.069m-21.662.867c1.389.019 1.96 1.175 1.47 2.947l-2.777 8.54a4.511 4.511 0 01-3.411 3.154l-2.331.132c-.766.038-1.546.088-2.318.138s-1.545.094-2.318.145l-2.322.145c-1.388 0-1.966-1.131-1.476-2.877l2.727-8.582a4.585 4.585 0 013.424-3.229c.785-.05 1.564-.094 2.343-.138l2.331-.132c.779-.044 1.545-.082 2.331-.119s1.552-.082 2.324-.126m-21.744 1.326c1.389-.006 1.973 1.137 1.483 2.915l-2.72 8.607a4.6 4.6 0 01-3.405 3.229c-.773.05-1.546.113-2.331.176s-1.552.119-2.331.182-1.558.126-2.337.195-1.564.126-2.331.2c-1.414.025-2-1.093-1.52-2.846l2.676-8.657a4.687 4.687 0 013.424-3.3c.792-.069 1.571-.119 2.356-.182s1.558-.126 2.343-.182 1.558-.113 2.343-.176 1.564-.107 2.35-.163m-21.895 1.753c1.414-.038 2 1.1 1.52 2.9l-2.651 8.67a4.726 4.726 0 01-3.4 3.3c-.792.075-1.577.157-2.362.239s-1.57.145-2.35.226-1.571.151-2.356.239-1.577.157-2.362.239c-1.4.057-2.017-1.049-1.552-2.827l2.626-8.72a4.8 4.8 0 013.424-3.374c.8-.075 1.583-.157 2.369-.226s1.583-.151 2.375-.22l2.362-.226c.785-.069 1.571-.138 2.356-.214m-22.046 2.18c1.407-.063 2.023 1.062 1.564 2.865l-2.614 8.752a4.8 4.8 0 01-3.405 3.374c-.8.088-1.583.176-2.375.27l-2.375.276-2.369.283c-.8.088-1.583.188-2.381.283-1.414.082-2.035-1.024-1.583-2.808l2.576-8.8a4.851 4.851 0 013.424-3.443c.8-.094 1.6-.182 2.394-.27s1.583-.176 2.381-.27 1.59-.17 2.375-.258 1.589-.17 2.387-.258m-22.253 2.563c1.439-.088 2.067 1.03 1.608 2.859l-2.545 8.822a4.909 4.909 0 01-3.424 3.443c-.792.107-1.6.214-2.394.308-.8.113-1.59.22-2.394.32-.785.113-1.589.22-2.394.327l-2.387.32c-1.432.113-2.067-.98-1.627-2.783l2.519-8.877a4.875 4.875 0 013.43-3.512c.8-.107 1.608-.214 2.4-.308.81-.113 1.608-.214 2.419-.314s1.6-.2 2.394-.308 1.6-.195 2.4-.3m-22.454 2.959c1.451-.119 2.1 1 1.646 2.84l-2.507 8.909a4.987 4.987 0 01-3.412 3.518c-.8.107-1.6.232-2.412.346s-1.608.239-2.412.364-1.615.239-2.425.364-1.615.239-2.419.358c-1.445.138-2.092-.955-1.665-2.771l2.463-8.965a5.031 5.031 0 013.437-3.587c.81-.119 1.627-.239 2.431-.352s1.621-.226 2.431-.346 1.615-.232 2.425-.339 1.615-.232 2.419-.339m-22.668 3.3c1.457-.126 2.123.98 1.684 2.833l-2.45 8.99a5.043 5.043 0 01-3.418 3.587l-2.438.4c-.81.126-1.627.264-2.444.39s-1.627.27-2.438.408-1.633.264-2.456.4c-1.458.163-2.142-.93-1.715-2.758l2.412-9.059a5.111 5.111 0 013.462-3.656c.811-.126 1.633-.258 2.444-.383s1.646-.258 2.45-.39l2.469-.377 2.438-.377m-22.906 3.65c1.477-.145 2.155.961 1.734 2.833l-2.394 9.078a5.15 5.15 0 01-3.437 3.656c-.817.138-1.646.289-2.469.427l-2.456.434c-.829.144-1.652.289-2.475.44s-1.652.289-2.475.434c-1.483.176-2.167-.911-1.772-2.758l2.362-9.147a5.187 5.187 0 013.455-3.726c.823-.138 1.659-.283 2.494-.421s1.64-.276 2.476-.427c.823-.132 1.652-.27 2.481-.408l2.475-.415M653.09 70c1.489-.17 2.186.942 1.778 2.827L652.537 82a5.218 5.218 0 01-3.443 3.726c-.829.151-1.665.308-2.494.465s-1.659.308-2.494.465-1.665.308-2.494.471l-2.5.471c-1.5.188-2.205-.892-1.81-2.764l2.3-9.242a5.267 5.267 0 013.462-3.795c.836-.145 1.671-.308 2.5-.452s1.677-.3 2.519-.452 1.665-.3 2.5-.452 1.671-.289 2.507-.44m-23.4 4.266c1.508-.182 2.237.924 1.841 2.833l-2.281 9.279a5.292 5.292 0 01-3.462 3.782c-.836.17-1.671.327-2.513.5s-1.671.333-2.519.49-1.678.333-2.519.5l-2.526.5c-1.5.214-2.23-.88-1.847-2.771l2.236-9.336a5.325 5.325 0 013.468-3.864c.848-.157 1.684-.32 2.538-.484.836-.157 1.684-.314 2.526-.477s1.69-.32 2.526-.477 1.684-.32 2.532-.477M606.052 78.8c1.539-.207 2.268.911 1.879 2.846l-2.218 9.367a5.321 5.321 0 01-3.455 3.858c-.836.176-1.69.352-2.526.521s-1.7.352-2.551.521-1.69.358-2.538.528-1.709.358-2.557.534c-1.52.22-2.268-.873-1.9-2.777l2.186-9.443a5.323 5.323 0 013.468-3.92c.848-.176 1.709-.346 2.557-.509s1.7-.346 2.557-.515 1.7-.333 2.551-.5 1.7-.333 2.544-.509M582.2 83.59c1.545-.22 2.293.9 1.923 2.852l-2.161 9.474a5.347 5.347 0 01-3.443 3.92c-.867.176-1.715.364-2.57.54s-1.709.371-2.563.553-1.715.371-2.563.553-1.715.364-2.57.553c-1.539.245-2.306-.848-1.96-2.789l2.111-9.543a5.427 5.427 0 013.487-3.989c.867-.176 1.721-.358 2.576-.534.873-.176 1.715-.346 2.582-.528s1.728-.352 2.576-.534 1.715-.346 2.576-.528m-24.053 5.01c1.546-.232 2.325.892 1.966 2.859l-2.1 9.587a5.41 5.41 0 01-3.449 3.971c-.867.2-1.721.383-2.576.578l-2.595.572c-.867.188-1.734.383-2.595.572s-1.721.377-2.588.578c-1.545.245-2.325-.854-1.985-2.815l2.048-9.644a5.44 5.44 0 013.468-4.046c.867-.188 1.734-.371 2.6-.553s1.747-.377 2.6-.559c.873-.182 1.734-.371 2.595-.553.88-.176 1.74-.364 2.607-.547m-24.234 5.187c1.565-.245 2.35.886 2.011 2.877l-2.036 9.694a5.41 5.41 0 01-3.443 4.033c-.861.195-1.728.39-2.6.591s-1.728.39-2.6.584-1.728.4-2.6.591-1.74.4-2.614.6c-1.564.258-2.356-.854-2.023-2.827l1.985-9.757a5.412 5.412 0 013.455-4.1c.88-.195 1.74-.383 2.62-.572s1.74-.383 2.614-.572 1.74-.383 2.614-.572 1.74-.377 2.62-.565m-24.4 5.346c1.583-.251 2.394.88 2.073 2.9l-1.973 9.795a5.443 5.443 0 01-3.437 4.1c-.873.195-1.74.4-2.614.6l-2.614.6c-.867.2-1.74.408-2.613.6l-2.607.6c-1.564.258-2.375-.854-2.067-2.852l1.9-9.864a5.453 5.453 0 013.449-4.159l2.632-.584c.873-.195 1.753-.383 2.626-.584s1.759-.383 2.62-.578c.88-.195 1.753-.39 2.62-.578m-24.465 5.447c1.571-.251 2.394.9 2.08 2.94l-1.9 9.9a5.452 5.452 0 01-3.411 4.146c-.873.195-1.74.408-2.614.609l-2.626.6c-.873.214-1.74.408-2.62.616l-2.614.616c-1.577.27-2.412-.861-2.117-2.877l1.841-9.983a5.442 5.442 0 013.449-4.2c.873-.195 1.747-.4 2.626-.591s1.753-.4 2.626-.6 1.753-.39 2.639-.584 1.753-.4 2.639-.6m-24.533 5.529c1.583-.258 2.406.9 2.111 2.972l-1.816 10.008a5.433 5.433 0 01-3.386 4.184c-.873.214-1.747.415-2.626.622s-1.753.408-2.626.616-1.74.408-2.62.616-1.747.415-2.62.616c-1.564.27-2.394-.873-2.124-2.915l1.772-10.09a5.383 5.383 0 013.393-4.241l2.639-.6c.873-.195 1.747-.4 2.639-.6.873-.195 1.759-.39 2.626-.591s1.759-.4 2.639-.6m-26.217 5.937c2.406-.446 3.807.609 3.568 2.683l-1.74 10.128a6.542 6.542 0 01-4.775 4.555c-1.332.314-2.658.622-3.983.936s-2.645.622-3.983.942l-3.964.924c-1.326.314-2.645.622-3.964.936-2.375.459-3.776-.584-3.568-2.639l1.671-10.234a6.46 6.46 0 014.768-4.624q1.988-.443 3.977-.9c1.338-.3 2.664-.6 4-.9l4-.9c1.336-.3 2.664-.609 3.99-.9m-37.057 8.357c2.394-.427 3.795.653 3.581 2.764l-1.613 10.293a6.436 6.436 0 01-4.712 4.593c-1.307.308-2.626.616-3.927.917s-2.614.609-3.92.911-2.613.609-3.914.9l-3.914.9c-2.343.433-3.726-.641-3.531-2.733l1.533-10.391a6.293 6.293 0 014.655-4.643q1.96-.433 3.933-.88c1.307-.289 2.614-.578 3.933-.867l3.945-.886c1.313-.3 2.626-.591 3.952-.886m-36.47 8.073c2.337-.4 3.713.723 3.537 2.865l-1.5 10.454a6.231 6.231 0 01-4.567 4.6c-1.288.3-2.563.584-3.839.873s-2.557.572-3.832.854-2.551.578-3.813.861-2.544.565-3.807.848c-2.28.4-3.644-.71-3.468-2.846l1.4-10.555a5.984 5.984 0 014.511-4.637l3.826-.817c1.275-.276 2.551-.547 3.839-.829s2.557-.553 3.845-.836 2.576-.553 3.864-.836m-35.44 7.545c2.249-.358 3.594.817 3.43 2.984l-1.363 10.605A5.933 5.933 0 01323 158.2l-3.7.792c-1.231.264-2.456.521-3.682.785s-2.444.521-3.663.766c-1.219.264-2.438.515-3.644.773-2.193.352-3.518-.823-3.368-2.984l1.275-10.693a5.759 5.759 0 014.3-4.605l3.663-.735q1.856-.377 3.694-.748c1.238-.258 2.475-.5 3.713-.76s2.475-.509 3.726-.766m-33.914 6.737c2.136-.3 3.424.942 3.279 3.141l-1.225 10.743a5.594 5.594 0 01-4.14 4.53c-1.175.232-2.35.459-3.506.691-1.181.226-2.337.452-3.493.672s-2.3.446-3.455.666-2.293.427-3.43.647c-2.055.27-3.292-.961-3.16-3.16l1.156-10.812a5.286 5.286 0 014-4.53c1.15-.207 2.3-.415 3.455-.635s2.318-.421 3.474-.634 2.337-.434 3.512-.653 2.35-.446 3.531-.666m-31.815 5.661c1.985-.207 3.192 1.093 3.066 3.33l-1.118 10.863a5.149 5.149 0 01-3.826 4.429c-1.093.182-2.167.371-3.242.553s-2.149.358-3.21.534-2.13.352-3.192.521-2.1.333-3.141.5c-1.878.182-3.022-1.137-2.909-3.349l1.03-10.938a4.9 4.9 0 013.663-4.41c1.049-.157 2.1-.32 3.173-.484s2.123-.327 3.2-.5 2.149-.339 3.235-.515 2.174-.352 3.267-.534m-29.107 4.285c1.8-.119 2.884 1.269 2.783 3.525l-.993 10.976c-.3 2.255-1.646 3.939-3.455 4.291-.974.138-1.954.258-2.915.39s-1.922.239-2.865.358c-.961.113-1.91.226-2.846.333s-1.866.22-2.8.327c-1.646.069-2.651-1.332-2.544-3.581l.911-11.026c.276-2.331 1.514-3.952 3.242-4.253q1.385-.151 2.808-.3c.942-.113 1.891-.214 2.846-.327s1.929-.226 2.9-.346 1.948-.245 2.928-.364m-25.715 2.6c1.558.006 2.494 1.489 2.387 3.77l-.867 11.045c-.258 2.268-1.439 3.883-3 4.115-.854.057-1.7.119-2.513.182-.836.05-1.658.113-2.469.157l-2.419.132c-.798.044-1.6.075-2.375.1-1.4-.05-2.255-1.558-2.155-3.826l.81-11.082c.251-2.337 1.307-3.9 2.758-4.059.785-.031 1.577-.063 2.394-.1s1.615-.075 2.438-.119 1.646-.094 2.475-.151 1.684-.1 2.532-.163m-21.681.641c1.275.151 2.036 1.728 1.941 4.027l-.779 11.108c-.232 2.262-1.206 3.788-2.482 3.889-.7-.013-1.376-.038-2.054-.05s-1.344-.05-2-.088-1.3-.057-1.941-.094-1.263-.088-1.885-.138c-3.286-.352-3.4-4.234-3.4-4.272l.728-11.135s.553-3.826 3.939-3.631c.622.05 1.256.094 1.9.132s1.294.082 1.96.113 1.338.063 2.01.082 1.37.05 2.067.057m-27.7-4.574a5.644 5.644 0 013.594 5.271l-.66 11.12a2.913 2.913 0 01-4.04 2.645 72.163 72.163 0 01-6.346-2.588c-.961-.446-1.86-.9-2.72-1.363s-1.671-.924-2.444-1.4c-1.6-1.125-2.124-3.537-2.067-5.428l.584-11.082c.176-2.312 1.093-3.217 2.488-2.482q1.159.707 2.469 1.388c.873.459 1.778.9 2.745 1.357s1.985.867 3.047 1.3 2.18.854 3.349 1.263m-20.286-13.263a12.047 12.047 0 01.961 5.61l-.553 11.045c-.17 2.595-.848 2.84-1.238 2.387-.038-.044-.075-.113-.113-.157a16.118 16.118 0 01-.873-1.615 14.573 14.573 0 01-.634-1.646 13.345 13.345 0 01-.452-1.665 14.057 14.057 0 01-.245-1.69c-.063-.911-.031-2.287.132-5.673l.521-10.957c.044-.829.057-1.652.163-2.475a1.061 1.061 0 01.088.314 13.768 13.768 0 00.258 1.659 12.743 12.743 0 00.446 1.646 14.146 14.146 0 00.66 1.621 14.855 14.855 0 00.88 1.6M871.3 74.789c2.123-5.013 5.221-7.69 9.461-8.192q9.81.009 19.658.251 9.81.245 19.677.716 9.848.481 19.74 1.2t19.847 1.709q5.079.5 10.165 1.068c3.386.371 6.779.76 10.159 1.156s6.766.8 10.134 1.2 6.722.8 10.058 1.2l-41.741 106.22q-4.8-.537-9.644-1.1c-3.242-.371-6.471-.741-9.719-1.106s-6.5-.71-9.763-1.049-6.5-.647-9.744-.942q-9.575-.867-19.093-1.426t-19.011-.842q-9.5-.3-18.973-.308-9.5-.019-18.967.22c-3.832-.364-5.064-2.7-3.876-7.344L871.3 74.789M860.145 66.8c5.315.572 4.731 5.3 3.9 8.073l-31.413 92.8c-1.7 4.423-5.146 7.445-9.022 7.86q-14.06.735-28.146 1.973-14.164 1.244-28.347 2.965-14.287 1.725-28.63 3.889-14.437 2.186-28.931 4.769c-3.958.245-5.409-1.935-4.448-6.653l27.863-96.871c1.627-4.995 5.309-8.714 9.386-9.487q14.965-1.941 29.868-3.537 14.775-1.562 29.536-2.756 14.645-1.178 29.277-1.948 14.55-.754 29.107-1.074M720.923 79.061c5.566-.107 5.221 4.718 4.511 7.608l-27.662 97.154a13.713 13.713 0 01-8.99 9.191q-14.758 2.893-29.572 6.132-14.956 3.261-29.974 6.848-15.172 3.6-30.382 7.5-15.37 3.93-30.766 8.092c-4.216.666-5.924-1.426-5.189-6.4l23.83-102.915c1.439-5.328 5.164-9.524 9.487-10.693q15.926-3.327 31.821-6.465 15.71-3.091 31.394-5.943 15.512-2.827 30.954-5.372 15.3-2.516 30.54-4.737m-147.553 27.4c5.981-.559 5.9 4.5 5.321 7.564L555.1 217.3a14.969 14.969 0 01-9.072 10.347q-15.662 4.373-31.312 8.9-15.794 4.571-31.539 9.248-15.908 4.721-31.67 9.474-15.936 4.806-31.652 9.594c-7.168 1.351-6.377-4.2-6.031-6.565l18.86-109.87c1.545-7.74 6.05-10.618 9.556-11.673q16.379-3.9 32.984-7.841 16.4-3.883 32.933-7.734 16.332-3.807 32.751-7.52 16.219-3.656 32.462-7.194m-162.982 37.877c6.477-1.263 10.423 1.6 9.813 7.118l-18.414 110.423c-2.149 7.677-8.733 10.957-12.465 12.226a6359.242 6359.242 0 01-47.088 14.1c-15.562 4.574-30.684 8.928-45.241 12.942-14.739 4.065-28.862 7.772-42.187 11.007-13.482 3.279-26.148 6.056-37.8 8.23-4.869.314-7.118-2.255-7.1-8.1l10.2-118.54c.767-6.144 4.41-10.743 9.279-11.717 12.308-1.69 25.658-3.914 39.876-6.565 14.048-2.607 28.906-5.623 44.393-8.946 15.286-3.279 31.155-6.842 47.471-10.6 16.052-3.7 32.512-7.589 49.262-11.566m-278.8 14.494a15.332 15.332 0 001.162 6.81 18.837 18.837 0 004.624 6.377 36.638 36.638 0 008.639 5.818 81.151 81.151 0 0013.244 5.127c.955.289 1.941.553 2.972.8 1.049.245 2.13.459 3.248.653s2.306.371 3.525.515 2.469.283 3.77.39c2.193.188 4.517.308 6.955.377s5 .082 7.671.031 5.435-.138 8.331-.3 5.862-.358 8.953-.616c4.6.27 6.8 3.518 6.741 9.933l-9.795 118.81c-.93 5.918-3.55 9.355-7.985 10.5-2.921.352-5.736.653-8.456.886s-5.353.421-7.872.534-4.925.163-7.231.151-4.486-.1-6.565-.251c-1.219-.088-2.4-.207-3.55-.346s-2.243-.3-3.3-.484-2.079-.4-3.053-.647-1.91-.515-2.808-.817a68.258 68.258 0 01-12.433-5.34 33.639 33.639 0 01-8.1-6.239 20.288 20.288 0 01-4.31-6.942 19.889 19.889 0 01-1.056-7.52l6.691-138.217m804.6 26.1a2.075 2.075 0 011.728 2.972l-2.871 7.439a3.826 3.826 0 01-3.757 2.325l-2.614-.283c-.873-.094-1.74-.188-2.62-.276s-1.74-.188-2.62-.27-1.734-.188-2.614-.27a2.034 2.034 0 01-1.74-2.909l2.815-7.451a3.884 3.884 0 013.763-2.394c.873.088 1.759.176 2.626.27.886.088 1.772.182 2.639.276l2.632.276c.88.1 1.759.195 2.633.3m-23.623-2.325c1.326.188 1.841 1.319 1.332 2.865l-2.8 7.457a3.655 3.655 0 01-3.317 2.45c-.729-.063-1.483-.113-2.218-.176s-1.483-.113-2.218-.163-1.489-.107-2.224-.157l-2.205-.151c-1.326-.17-1.847-1.263-1.351-2.8l2.752-7.464a3.758 3.758 0 013.323-2.532c.741.05 1.483.107 2.23.157s1.482.113 2.236.157c.729.063 1.483.113 2.23.176.723.057 1.476.113 2.224.176m-20.726-1.351c1.326.157 1.853 1.244 1.357 2.8l-2.739 7.483a3.789 3.789 0 01-3.292 2.532c-.754-.038-1.476-.075-2.212-.094-.735-.038-1.47-.069-2.211-.1s-1.477-.05-2.205-.082-1.483-.05-2.212-.082c-1.3-.113-1.847-1.187-1.363-2.714l2.708-7.5a3.846 3.846 0 013.3-2.614c.729.025 1.47.05 2.211.082s1.476.057 2.224.088c.729.031 1.476.063 2.211.088s1.483.075 2.224.107m-20.645-.666c1.313.1 1.841 1.175 1.345 2.733l-2.677 7.514a3.9 3.9 0 01-3.267 2.614c-.723-.013-1.464-.019-2.2-.025s-1.47-.019-2.205-.025-1.47-.013-2.205-.013-1.47 0-2.2-.006c-1.3-.082-1.853-1.125-1.376-2.658l2.651-7.533a3.959 3.959 0 013.261-2.689c.748 0 1.483.006 2.224.013l2.205.019c.735.006 1.477.013 2.218.025s1.476.025 2.224.031m-20.632-.025c1.307.057 1.86 1.106 1.382 2.676l-2.639 7.533a3.966 3.966 0 01-3.229 2.7c-.741.013-1.47.025-2.211.044s-1.464.031-2.205.044-1.47.038-2.205.063-1.476.038-2.211.057c-1.313-.038-1.866-1.062-1.4-2.6l2.595-7.564a4.1 4.1 0 013.261-2.771c.741-.019 1.476-.044 2.218-.057s1.477-.038 2.218-.044 1.483-.031 2.211-.044 1.483-.019 2.218-.031m-20.645.584c1.313.019 1.866 1.049 1.407 2.62l-2.576 7.57a4.139 4.139 0 01-3.235 2.783c-.729.031-1.47.063-2.211.1l-2.211.113c-.735.038-1.476.082-2.205.119l-2.218.126c-1.319 0-1.878-1-1.426-2.551l2.551-7.6a4.188 4.188 0 013.236-2.852c.741-.044 1.489-.082 2.224-.119l2.224-.107c.735-.038 1.476-.075 2.224-.107s1.483-.069 2.218-.094m-20.695 1.169c1.319-.019 1.885.993 1.432 2.563l-2.532 7.615a4.249 4.249 0 01-3.217 2.865c-.735.05-1.483.107-2.224.17s-1.477.107-2.224.17-1.477.113-2.218.176l-2.218.188c-1.326.038-1.9-.949-1.451-2.494l2.5-7.652a4.317 4.317 0 013.229-2.934c.741-.05 1.489-.113 2.23-.176s1.483-.113 2.23-.17l2.237-.17 2.224-.151m-20.789 1.721c1.338-.044 1.91.942 1.458 2.526l-2.469 7.658a4.408 4.408 0 01-3.223 2.94c-.747.075-1.483.151-2.236.22s-1.483.163-2.224.239-1.489.157-2.237.239l-2.236.245c-1.326.069-1.9-.892-1.47-2.456l2.438-7.69a4.464 4.464 0 013.235-3.016c.748-.075 1.489-.151 2.237-.232s1.5-.157 2.249-.226 1.483-.157 2.23-.226 1.5-.151 2.249-.22m-20.9 2.268c1.338-.088 1.916.886 1.489 2.475l-2.431 7.709a4.453 4.453 0 01-3.217 3.016l-2.243.283c-.748.1-1.5.195-2.237.289s-1.508.2-2.249.3-1.5.2-2.249.3c-1.351.107-1.941-.842-1.52-2.413l2.387-7.74a4.6 4.6 0 013.242-3.091c.76-.094 1.508-.195 2.255-.289s1.514-.195 2.262-.283 1.5-.195 2.249-.283 1.5-.188 2.262-.27m-21.047 2.771c1.351-.119 1.941.842 1.52 2.444l-2.375 7.759a4.589 4.589 0 01-3.217 3.091c-.76.113-1.508.232-2.262.339s-1.508.226-2.262.346-1.514.232-2.262.346-1.52.245-2.274.352c-1.351.145-1.954-.792-1.545-2.375l2.337-7.8a4.708 4.708 0 013.242-3.166c.76-.107 1.52-.22 2.281-.346.748-.107 1.508-.22 2.268-.333s1.52-.22 2.274-.333 1.52-.22 2.274-.327m-21.21 3.261c1.357-.145 1.973.8 1.558 2.413l-2.331 7.822a4.743 4.743 0 01-3.21 3.166c-.766.126-1.527.258-2.287.383s-1.52.264-2.274.4-1.527.264-2.293.4-1.533.27-2.287.408c-1.37.163-1.985-.76-1.589-2.343l2.293-7.866a4.8 4.8 0 013.242-3.229c.76-.138 1.533-.264 2.293-.4s1.533-.27 2.293-.389c.773-.138 1.539-.258 2.3-.39l2.293-.377m-21.411 3.732c1.382-.176 2.023.76 1.615 2.375l-2.287 7.878a4.835 4.835 0 01-3.223 3.248c-.76.145-1.539.3-2.3.434-.779.157-1.539.3-2.306.452s-1.539.289-2.3.446-1.545.3-2.312.452c-1.37.195-2.017-.71-1.627-2.318l2.249-7.922a4.938 4.938 0 013.236-3.3c.779-.151 1.545-.3 2.325-.434.766-.157 1.527-.3 2.306-.446s1.552-.3 2.318-.434 1.545-.283 2.306-.427m-21.6 4.178c1.388-.207 2.036.723 1.646 2.356l-2.237 7.935a4.914 4.914 0 01-3.21 3.317q-1.169.236-2.318.49c-.779.157-1.558.314-2.331.49-.779.157-1.564.327-2.337.49s-1.546.333-2.325.5c-1.388.22-2.042-.678-1.665-2.293l2.2-7.985a5 5 0 013.242-3.38l2.343-.49c.773-.157 1.558-.32 2.337-.478s1.552-.32 2.331-.484 1.552-.314 2.325-.471m-21.794 4.593c1.389-.226 2.061.691 1.677 2.337l-2.18 8a5.063 5.063 0 01-3.223 3.386c-.785.176-1.571.352-2.35.534s-1.564.346-2.35.528-1.571.358-2.356.54-1.558.364-2.337.547c-1.42.245-2.092-.641-1.728-2.274l2.149-8.048a5.067 5.067 0 013.261-3.455c.792-.176 1.577-.352 2.362-.534s1.571-.352 2.356-.521 1.571-.352 2.362-.521 1.564-.346 2.356-.521m-22.02 5c1.432-.258 2.086.628 1.715 2.306l-2.13 8.086a5.105 5.105 0 01-3.229 3.449c-.785.188-1.571.383-2.368.572s-1.583.383-2.381.578-1.577.383-2.369.578-1.589.4-2.381.584c-1.426.276-2.111-.609-1.747-2.249l2.086-8.123a5.223 5.223 0 013.267-3.525c.785-.182 1.583-.377 2.381-.572s1.583-.377 2.387-.565 1.59-.377 2.381-.559 1.589-.377 2.387-.559m-22.253 5.348c1.433-.27 2.13.628 1.772 2.306l-2.08 8.148a5.2 5.2 0 01-3.248 3.512c-.791.207-1.59.415-2.394.616s-1.59.415-2.387.616-1.6.415-2.4.622-1.6.415-2.406.622c-1.439.3-2.136-.584-1.79-2.243l2.048-8.2a5.236 5.236 0 013.248-3.581c.81-.2 1.608-.4 2.412-.609l2.413-.6c.8-.2 1.608-.408 2.406-.6s1.6-.4 2.406-.6m-22.473 5.723c1.451-.3 2.167.591 1.828 2.281l-2.023 8.224a5.259 5.259 0 01-3.261 3.587c-.8.214-1.608.427-2.406.647s-1.608.434-2.419.647-1.615.434-2.419.653-1.608.44-2.419.66c-1.445.32-2.168-.559-1.834-2.23l1.985-8.274a5.293 5.293 0 013.267-3.644c.81-.22 1.615-.427 2.425-.647s1.621-.427 2.431-.635 1.608-.434 2.419-.641l2.425-.628m-22.661 6.025c1.464-.32 2.193.578 1.853 2.281l-1.966 8.306a5.3 5.3 0 01-3.242 3.638c-.811.226-1.621.446-2.438.685s-1.621.452-2.438.679-1.621.459-2.431.685-1.633.459-2.444.691c-1.458.327-2.2-.54-1.878-2.23l1.929-8.356a5.351 5.351 0 013.273-3.7c.8-.226 1.627-.452 2.444-.672s1.633-.446 2.45-.672 1.627-.446 2.444-.672 1.633-.44 2.444-.66m-22.85 6.314c1.47-.333 2.224.559 1.891 2.281l-1.9 8.381a5.409 5.409 0 01-3.248 3.7c-.823.233-1.633.471-2.456.7s-1.633.471-2.45.71-1.64.471-2.456.716-1.646.477-2.463.716c-1.477.346-2.237-.521-1.929-2.224l1.879-8.431a5.345 5.345 0 013.273-3.763c.811-.232 1.64-.471 2.463-.7s1.646-.471 2.469-.7l2.469-.7c.823-.232 1.634-.459 2.463-.691m-23.025 6.557c1.483-.346 2.243.547 1.941 2.281l-1.853 8.456a5.428 5.428 0 01-3.248 3.763c-.823.239-1.64.484-2.463.729s-1.659.49-2.482.729c-.823.258-1.646.5-2.475.748s-1.646.5-2.475.741c-1.483.358-2.249-.515-1.954-2.237l1.809-8.507a5.433 5.433 0 013.254-3.814c.829-.245 1.659-.49 2.494-.735s1.652-.477 2.488-.716 1.652-.484 2.481-.722 1.659-.484 2.482-.716m-23.161 6.774c1.489-.358 2.268.54 1.973 2.293l-1.791 8.532a5.462 5.462 0 01-3.242 3.814c-.817.245-1.652.5-2.488.748s-1.659.5-2.494.76c-.817.251-1.64.5-2.475.754s-1.659.509-2.488.76c-1.489.377-2.274-.509-1.992-2.237l1.753-8.6a5.444 5.444 0 013.242-3.864c.836-.251 1.671-.5 2.5-.741s1.671-.5 2.494-.741c.848-.251 1.665-.49 2.507-.741s1.665-.49 2.5-.735m-23.283 6.942c1.5-.371 2.293.534 2.017 2.293l-1.728 8.626a5.465 5.465 0 01-3.229 3.857q-1.253.386-2.488.773c-.836.251-1.665.509-2.494.766s-1.671.509-2.494.766l-2.494.773c-1.489.377-2.287-.5-2.017-2.255l1.677-8.676a5.49 5.49 0 013.229-3.908c.836-.258 1.677-.5 2.513-.76s1.665-.5 2.5-.748 1.671-.509 2.507-.76l2.5-.748m-23.325 7.057c1.5-.371 2.293.547 2.029 2.325l-1.659 8.708a5.451 5.451 0 01-3.2 3.889c-.836.258-1.671.521-2.494.779s-1.671.521-2.5.779-1.659.515-2.494.779-1.665.521-2.488.779c-1.514.39-2.306-.5-2.054-2.268l1.615-8.764a5.438 5.438 0 013.223-3.945c.823-.251 1.671-.509 2.507-.766s1.665-.509 2.5-.76 1.677-.509 2.5-.766 1.671-.509 2.513-.766m-23.34 7.143c1.5-.383 2.312.547 2.055 2.343l-1.59 8.783a5.42 5.42 0 01-3.173 3.927c-.836.258-1.665.521-2.5.779s-1.665.521-2.494.785-1.652.521-2.475.785c-.848.258-1.671.521-2.5.779-1.489.39-2.3-.521-2.067-2.3l1.558-8.84a5.394 5.394 0 013.173-3.977c.836-.258 1.671-.509 2.5-.766s1.671-.509 2.513-.766c.823-.258 1.671-.515 2.5-.773l2.5-.76m-24.9 7.646c2.287-.616 3.625.157 3.43 1.954L409.1 286.2a6.763 6.763 0 01-4.492 4.385c-1.263.389-2.513.792-3.782 1.187-1.25.39-2.513.785-3.763 1.181s-2.519.785-3.77 1.187-2.513.785-3.763 1.175c-2.262.628-3.6-.132-3.411-1.922l1.445-8.946a6.645 6.645 0 014.467-4.423c1.263-.39 2.526-.766 3.788-1.162 1.269-.377 2.519-.773 3.782-1.156l3.795-1.162c1.269-.39 2.526-.779 3.795-1.162m-35.126 10.743c2.268-.6 3.612.2 3.437 2.023l-1.407 8.984a6.635 6.635 0 01-4.423 4.41c-1.25.383-2.482.773-3.725 1.15s-2.475.773-3.713 1.156-2.463.773-3.7 1.15-2.469.76-3.688 1.143c-2.224.6-3.55-.188-3.393-2.01l1.351-9.072a6.383 6.383 0 014.354-4.417c1.238-.371 2.475-.748 3.707-1.118s2.494-.754 3.732-1.125 2.482-.754 3.732-1.137 2.488-.754 3.738-1.137M337.6 296.5c2.205-.565 3.518.27 3.361 2.13l-1.3 9.11a6.282 6.282 0 01-4.272 4.366c-1.213.377-2.425.735-3.619 1.106-1.213.371-2.419.729-3.619 1.093s-2.406.722-3.594 1.087c-1.206.358-2.394.716-3.6 1.074-2.142.547-3.443-.283-3.3-2.124l1.219-9.179a6.14 6.14 0 014.209-4.392c1.206-.346 2.4-.7 3.606-1.055s2.412-.7 3.625-1.062 2.419-.716 3.631-1.074 2.431-.71 3.65-1.081m-33.423 9.713c2.13-.5 3.411.377 3.273 2.255l-1.181 9.217a5.976 5.976 0 01-4.1 4.322c-1.169.346-2.331.678-3.487 1.011s-2.318.672-3.468 1.005-2.3.653-3.449.98-2.287.647-3.424.974c-2.061.49-3.323-.4-3.2-2.268l1.112-9.286a5.749 5.749 0 014.015-4.316c1.143-.32 2.287-.641 3.455-.955 1.143-.32 2.306-.641 3.468-.974 1.156-.314 2.318-.641 3.474-.974 1.181-.327 2.343-.66 3.512-.993m-31.884 8.733c2.01-.433 3.229.515 3.11 2.419l-1.074 9.323a5.531 5.531 0 01-3.864 4.228c-1.087.3-2.193.591-3.279.886s-2.193.578-3.279.867-2.161.572-3.242.848-2.161.559-3.223.836c-1.922.408-3.1-.565-2.984-2.45l.993-9.38a5.232 5.232 0 013.726-4.2c1.068-.27 2.155-.54 3.235-.817s2.18-.553 3.273-.836l3.3-.854q1.64-.424 3.311-.867m-29.842 7.42c1.86-.333 3 .691 2.89 2.614l-.949 9.411a5.1 5.1 0 01-3.556 4.1q-1.536.358-3.053.716c-1 .232-2 .465-3.009.691s-1.992.459-2.984.679-1.96.452-2.94.66c-1.759.3-2.834-.76-2.739-2.67l.9-9.462a4.7 4.7 0 013.38-4.04c1-.207 1.979-.434 2.972-.647s2-.44 3-.666 2.017-.459 3.034-.685 2.029-.465 3.06-.7m-27.229 5.755c1.69-.214 2.714.9 2.626 2.846l-.854 9.48a4.5 4.5 0 01-3.217 3.92c-.911.17-1.816.346-2.727.515-.892.163-1.79.333-2.676.49s-1.778.314-2.645.465l-2.614.446c-1.571.163-2.5-.961-2.412-2.928l.792-9.518a4.167 4.167 0 012.99-3.845c.873-.138 1.759-.283 2.626-.427.886-.151 1.778-.3 2.676-.465s1.778-.308 2.7-.478c.9-.157 1.816-.333 2.733-.5m-23.993 3.738c1.445-.069 2.331 1.15 2.243 3.116l-.767 9.537c-.22 1.96-1.313 3.411-2.771 3.682-.785.1-1.564.195-2.331.276-.785.094-1.545.176-2.306.251l-2.262.226c-.741.057-1.483.119-2.205.182-1.313.013-2.1-1.244-2.029-3.2l.71-9.568c.214-2.017 1.181-3.393 2.532-3.6.735-.05 1.483-.113 2.236-.182s1.5-.132 2.268-.207 1.533-.157 2.312-.239 1.564-.182 2.368-.27m-20.2 1.388c1.194.088 1.9 1.426 1.828 3.405l-.678 9.581c-.2 1.96-1.1 3.3-2.287 3.418-.641.006-1.282.006-1.9.006-.641-.013-1.25-.019-1.866-.038s-1.206-.038-1.8-.063-1.181-.056-1.753-.088c-3.154-.289-3.179-3.65-3.179-3.65l.616-9.631c.006-.031.5-3.286 3.65-3.148.578.044 1.181.075 1.772.1s1.188.057 1.816.069c.609.019 1.238.025 1.866.031s1.275.006 1.922.006m-25.708-4.36a5.394 5.394 0 013.355 4.775l-.584 9.594c-.214 1.91-1.747 2.752-3.726 2.054-1.068-.44-2.1-.88-3.078-1.332s-1.9-.924-2.789-1.4-1.734-.961-2.526-1.464-1.558-1-2.268-1.514a6.392 6.392 0 01-1.916-5.02l.5-9.568c.17-1.973 1-2.632 2.293-1.8q1.084.763 2.287 1.5a49.215 49.215 0 005.353 2.839c.98.446 2.017.9 3.1 1.338m-18.735-14.469a12.614 12.614 0 01.9 5.258l-.484 9.556c-.195 2.739-1.024 1.835-1.03 1.822a1.7 1.7 0 01-.195-.308 16.836 16.836 0 01-.785-1.8c-.232-.6-.427-1.219-.6-1.841a20.848 20.848 0 01-.61-3.782c-.044-.854-.038-1.979.119-5.378l.471-9.487c.019-.628.038-1.263.119-1.9a2.034 2.034 0 01.075.509c.05.635.119 1.263.22 1.885s.245 1.244.4 1.853c.176.616.371 1.225.6 1.822a16.188 16.188 0 00.8 1.791m6.7-190.852q-4.947 102.456-9.889 204.919a20.532 20.532 0 001.018 7.659 20.788 20.788 0 004.234 7.068 32.824 32.824 0 007.979 6.308 65.676 65.676 0 0012.27 5.4 53.178 53.178 0 005.774 1.451c4.385.622 5.554.723 6.754.817 11.353.8 26.142-.578 43.752-3.669 17.39-3.06 37.394-7.772 59.345-13.671 21.53-5.786 44.814-12.653 69.291-20.186 23.88-7.344 48.8-15.267 74.292-23.384 43.381-13.815 88.283-28.108 133.247-41.245 42.891-12.534 85.964-24.056 128.46-33.26 40.856-8.852 81.561-15.656 121.844-19.3 39.266-3.537 78.771-4.14 118.634-.635 3.223.276 6.44.591 9.663.917s6.446.672 9.663 1.024 6.433.716 9.631 1.081 6.377.729 9.55 1.081l2.369-6.025-4.523-.509c-.509-.057-1.012-.119-1.514-.176l1.181-10.373c1.137-.7 2.651-1.64 3.782-2.35 3.543.408 4.052.465 4.555.521l1.514.17 46.026-117.145c-3.7-.44-4.228-.509-4.756-.572l-1.6-.188 1.483-11.535a966.99 966.99 0 014.046-2.614l4.787.572c.534.063 1.062.126 1.6.188l2.9-7.395c-3.361-.4-6.76-.817-10.159-1.225s-6.81-.823-10.234-1.225-6.836-.8-10.26-1.194-6.842-.748-10.259-1.093A897.245 897.245 0 00844.608 40.2a1278.96 1278.96 0 00-127.725 11.871C672.277 58.3 627.062 66.47 581.94 75.517c-47.459 9.537-94.986 20.073-141.075 30.307-27.166 6.019-53.779 11.931-79.349 17.378-26.261 5.6-51.3 10.687-74.53 14.909-23.711 4.31-45.348 7.684-64.233 9.732-19.124 2.061-35.239 2.745-47.628 1.665-5.058-.553-6.251-.723-7.388-.917-4.36-.9-5.365-1.169-6.32-1.458a86.557 86.557 0 01-13.451-5.051 37.751 37.751 0 01-8.771-5.692 18.415 18.415 0 01-4.7-6.22 14.205 14.205 0 01-1.219-6.6" transform="translate(-123.358 -39.467)"/></g><path id="Path_908" data-name="Path 908" class="cls-3" d="M123.387 328.493q4.938-102.466 9.889-204.931a14.191 14.191 0 001.219 6.6 18.3 18.3 0 004.7 6.22 37.684 37.684 0 008.771 5.692 85.889 85.889 0 0013.451 5.057c.955.289 1.96.547 3.016.792s2.149.465 3.3.66c1.137.195 2.331.371 3.569.528s2.507.289 3.82.4c12.389 1.081 28.5.4 47.628-1.671 18.885-2.042 40.523-5.422 64.233-9.725 23.227-4.228 48.281-9.317 74.53-14.909 25.57-5.453 52.183-11.359 79.349-17.378 46.089-10.234 93.617-20.776 141.075-30.307 45.121-9.053 90.337-17.221 134.943-23.447A1278.96 1278.96 0 01844.608 40.2a897.233 897.233 0 01125.118 3.562q5.126.528 10.259 1.1t10.272 1.194c3.411.4 6.829.8 10.222 1.225s6.8.817 10.159 1.219l-61.852 157.445q-4.759-.537-9.55-1.081c-3.2-.364-6.421-.729-9.631-1.081s-6.44-.7-9.663-1.024-6.446-.641-9.663-.924a667.156 667.156 0 00-118.634.641c-40.284 3.638-81 10.448-121.844 19.294-42.5 9.217-85.569 20.733-128.46 33.26-44.965 13.143-89.866 27.436-133.247 41.251-25.488 8.111-50.411 16.039-74.292 23.384-24.477 7.533-47.76 14.406-69.291 20.186-21.951 5.893-41.955 10.611-59.345 13.671-17.61 3.091-32.4 4.467-43.752 3.669-1.2-.088-2.368-.195-3.5-.333s-2.205-.3-3.254-.477-2.048-.4-3.016-.647-1.891-.509-2.758-.81a66.1 66.1 0 01-12.27-5.39 32.986 32.986 0 01-7.979-6.314 20.752 20.752 0 01-4.234-7.074 20.481 20.481 0 01-1.016-7.653z" transform="translate(547.204 15.229)"/><g id="Group_616" data-name="Group 616" transform="translate(19.772 36.584)"><path id="Path_909" data-name="Path 909" d="M1516.194 58.442c3.443.339 6.886.716 10.335 1.106s6.911.8 10.379 1.25 6.942.9 10.435 1.395 6.986 1.005 10.5 1.539c-3.361-.4-6.76-.81-10.159-1.219s-6.81-.823-10.222-1.225-6.848-.81-10.272-1.194-6.842-.748-10.259-1.1a897.231 897.231 0 00-125.117-3.562A1278.952 1278.952 0 001264.087 67.3c-44.606 6.226-89.822 14.393-134.944 23.447-47.459 9.531-94.986 20.073-141.075 30.307-27.166 6.019-53.779 11.924-79.349 17.378-26.249 5.592-51.3 10.68-74.53 14.909-23.711 4.3-45.348 7.684-64.233 9.725-19.124 2.067-35.239 2.752-47.628 1.671-1.313-.107-2.595-.245-3.82-.4s-2.432-.333-3.569-.528c-1.156-.195-2.249-.415-3.3-.66s-2.061-.5-3.016-.792c-12.528-3.682-20.249-8.073-24.37-12.942-4.058-4.819-4.593-10.084-2.821-15.581 1.747-5.409 5.711-11.032 10.7-16.687 4.907-5.554 10.787-11.126 16.511-16.555 4.278-4.027 8.513-8.042 12.257-11.956a72.571 72.571 0 009.154-11.265c2.243-3.575 3.55-7.005 3.493-10.228-.05-3.192-1.439-6.169-4.605-8.909a29.033 29.033 0 00-6.176-3.952 63.631 63.631 0 00-8.789-3.443q-5.07-1.593-11.5-2.972t-14.305-2.551q-3.477-.518-7.068-1.005a646.3 646.3 0 00-14.871-1.785c-2.55-.27-5.152-.54-7.79-.8-35.742-3.424-78.733-4.787-126.123-4.448-48.439.352-102.148 2.488-157.906 6.107-57.7 3.751-118.15 9.122-177.389 15.807C135.208 66.17 74.443 74.6 19.772 84.075c54.64-9.675 115.392-18.244 177.206-25.312C256.2 51.99 316.68 46.562 374.4 42.78c55.783-3.656 109.524-5.805 158.026-6.144 47.433-.346 90.5 1.03 126.3 4.467q3.958.377 7.815.8 3.836.405 7.571.854c2.482.3 4.925.616 7.332.936s4.769.66 7.106 1.005q8.02 1.2 14.607 2.614c4.4.942 8.312 1.966 11.786 3.066a64.138 64.138 0 019.041 3.569 30.875 30.875 0 016.4 4.09c3.254 2.808 4.718 5.862 4.806 9.1.088 3.286-1.212 6.76-3.437 10.391a72.755 72.755 0 01-9.185 11.384c-3.757 3.958-8.029 8.017-12.3 12.088-5.654 5.353-11.453 10.85-16.284 16.322-4.919 5.56-8.833 11.1-10.6 16.416-1.778 5.4-1.319 10.555 2.588 15.267 3.945 4.762 11.4 9.041 23.528 12.609.917.27 1.885.521 2.9.748s2.073.446 3.173.635 2.237.358 3.43.5 2.412.283 3.694.4c12.144 1.055 28.045.364 47.006-1.7 18.716-2.042 40.234-5.4 63.831-9.7 23.114-4.2 48.087-9.273 74.285-14.858 25.52-5.428 52.1-11.315 79.217-17.321 46.127-10.2 93.667-20.72 141.138-30.226 45.147-9.034 90.388-17.2 135-23.409 42.772-5.962 85.431-10.209 127.794-11.836a896.017 896.017 0 01125.226 3.595z" transform="translate(-19.772 -36.584)" fill="#949494"/></g></g></svg>