<svg xmlns="http://www.w3.org/2000/svg" width="1366" height="676"><defs><linearGradient id="a" x1=".5" x2=".5" y2="1" gradientUnits="objectBoundingBox"><stop offset="0" stop-color="#009da3"/><stop offset="1" stop-color="#94c0c2"/></linearGradient></defs><g data-name="Group 621"><g data-name="Group 284"><g data-name="Group 278"><path data-name="Path 230" d="M787.922 671.882v-4.807H578v6.12h.057a3.4 3.4 0 003.356 2.8h203.172a3.413 3.413 0 003.337-4.113z" fill="#18284f"/></g><g data-name="Group 279"><path data-name="Path 231" d="M784.585 671.203H581.413a3.406 3.406 0 01-2.795-5.354l17.434-25.007h173.893l17.432 25.01a3.406 3.406 0 01-2.792 5.351z" fill="#009da3"/></g><g data-name="Group 280"><path data-name="Path 232" d="M591.958 661.11l8.037-11.53a1.183 1.183 0 01.971-.508h164.067a1.177 1.177 0 01.969.508l8.041 11.53a1.184 1.184 0 01-.973 1.86H592.929a1.183 1.183 0 01-.971-1.86z" fill="#18284f"/></g><g data-name="Group 281"><rect data-name="Rectangle 84" width="183.301" height="119.64" rx="4.05" fill="#009da3" transform="translate(591.349 526)"/></g><g data-name="Group 282"><path data-name="Rectangle 85" fill="#27aae1" d="M601.933 536.582h162.133v98.474H601.933z"/></g><g data-name="Group 283"><path data-name="Path 233" d="M764.065 536.58v98.474H635.273l102.136-98.474z" fill="#30c7ef"/></g></g><path data-name="Path 229" d="M680.845 591h1.484s58.85-160.566 383.148-179.482c123-7.173 221.559-24.677 300.523-48.465V0H0v363.9c78.484 23.355 176.162 40.531 297.694 47.619C621.991 430.434 680.845 591 680.845 591z" fill="url(#a)"/></g></svg>