<svg xmlns="http://www.w3.org/2000/svg" width="209.998" height="150"><defs><style>.cls-1{fill:#18284f}.cls-2{fill:#009da3}</style></defs><g id="Group_284" data-name="Group 284" transform="translate(-169.623 -264.621)"><g id="Group_278" data-name="Group 278" transform="translate(169.623 405.696)"><path id="Path_230" data-name="Path 230" class="cls-1" d="M379.545 343.832v-4.807H169.623v6.12h.057a3.4 3.4 0 003.356 2.8h203.172a3.413 3.413 0 003.337-4.113z" transform="translate(-169.623 -339.025)"/></g><g id="Group_279" data-name="Group 279" transform="translate(169.623 379.462)"><path id="Path_231" data-name="Path 231" class="cls-2" d="M376.208 355.551H173.036a3.406 3.406 0 01-2.795-5.354l17.434-25.007h173.893L379 350.2a3.406 3.406 0 01-2.792 5.351z" transform="translate(-169.623 -325.189)"/></g><g id="Group_280" data-name="Group 280" transform="translate(183.365 387.693)"><path id="Path_232" data-name="Path 232" class="cls-1" d="M177.086 341.568l8.037-11.53a1.183 1.183 0 01.971-.508h164.067a1.177 1.177 0 01.969.508l8.041 11.53a1.184 1.184 0 01-.973 1.86H178.057a1.183 1.183 0 01-.971-1.86z" transform="translate(-176.87 -329.53)"/></g><g id="Group_281" data-name="Group 281" transform="translate(182.972 264.621)"><rect id="Rectangle_84" data-name="Rectangle 84" class="cls-2" width="183.301" height="119.64" rx="4.05"/></g><g id="Group_282" data-name="Group 282" transform="translate(193.556 275.203)"><path id="Rectangle_85" data-name="Rectangle 85" fill="#27aae1" d="M0 0h162.133v98.474H0z"/></g><g id="Group_283" data-name="Group 283" transform="translate(226.896 275.203)"><path id="Path_233" data-name="Path 233" d="M328.621 270.2v98.474H199.829L301.965 270.2z" transform="translate(-199.829 -270.202)" fill="#30c7ef"/></g></g></svg>